<mxfile host="app.diagrams.net" agent="Mozilla/5.0 (Windows NT 10.0; Win64; x64) AppleWebKit/537.36 (KHTML, like Gecko) Chrome/131.0.0.0 Safari/537.36 Edg/131.0.0.0" version="26.0.2">
  <diagram id="C5RBs43oDa-KdzZeNtuy" name="Page-1">
    <mxGraphModel dx="1709" dy="708" grid="1" gridSize="10" guides="1" tooltips="1" connect="1" arrows="1" fold="1" page="1" pageScale="1" pageWidth="827" pageHeight="1169" math="0" shadow="0">
      <root>
        <mxCell id="WIyWlLk6GJQsqaUBKTNV-0" />
        <mxCell id="WIyWlLk6GJQsqaUBKTNV-1" parent="WIyWlLk6GJQsqaUBKTNV-0" />
        <mxCell id="zkfFHV4jXpPFQw0GAbJ--0" value="HeadOffice" style="swimlane;fontStyle=2;align=center;verticalAlign=top;childLayout=stackLayout;horizontal=1;startSize=26;horizontalStack=0;resizeParent=1;resizeLast=0;collapsible=1;marginBottom=0;rounded=0;shadow=0;strokeWidth=1;" parent="WIyWlLk6GJQsqaUBKTNV-1" vertex="1">
          <mxGeometry x="343" y="160" width="170" height="138" as="geometry">
            <mxRectangle x="230" y="140" width="160" height="26" as="alternateBounds" />
          </mxGeometry>
        </mxCell>
        <mxCell id="zkfFHV4jXpPFQw0GAbJ--1" value="CompanyName: String" style="text;align=left;verticalAlign=top;spacingLeft=4;spacingRight=4;overflow=hidden;rotatable=0;points=[[0,0.5],[1,0.5]];portConstraint=eastwest;" parent="zkfFHV4jXpPFQw0GAbJ--0" vertex="1">
          <mxGeometry y="26" width="170" height="26" as="geometry" />
        </mxCell>
        <mxCell id="zkfFHV4jXpPFQw0GAbJ--2" value="+address: String" style="text;align=left;verticalAlign=top;spacingLeft=4;spacingRight=4;overflow=hidden;rotatable=0;points=[[0,0.5],[1,0.5]];portConstraint=eastwest;rounded=0;shadow=0;html=0;" parent="zkfFHV4jXpPFQw0GAbJ--0" vertex="1">
          <mxGeometry y="52" width="170" height="26" as="geometry" />
        </mxCell>
        <mxCell id="zkfFHV4jXpPFQw0GAbJ--3" value="+contactInfo: String" style="text;align=left;verticalAlign=top;spacingLeft=4;spacingRight=4;overflow=hidden;rotatable=0;points=[[0,0.5],[1,0.5]];portConstraint=eastwest;rounded=0;shadow=0;html=0;" parent="zkfFHV4jXpPFQw0GAbJ--0" vertex="1">
          <mxGeometry y="78" width="170" height="26" as="geometry" />
        </mxCell>
        <mxCell id="zkfFHV4jXpPFQw0GAbJ--4" value="" style="line;html=1;strokeWidth=1;align=left;verticalAlign=middle;spacingTop=-1;spacingLeft=3;spacingRight=3;rotatable=0;labelPosition=right;points=[];portConstraint=eastwest;" parent="zkfFHV4jXpPFQw0GAbJ--0" vertex="1">
          <mxGeometry y="104" width="170" height="8" as="geometry" />
        </mxCell>
        <mxCell id="zkfFHV4jXpPFQw0GAbJ--5" value="+generateCorporateReports:()" style="text;align=left;verticalAlign=top;spacingLeft=4;spacingRight=4;overflow=hidden;rotatable=0;points=[[0,0.5],[1,0.5]];portConstraint=eastwest;" parent="zkfFHV4jXpPFQw0GAbJ--0" vertex="1">
          <mxGeometry y="112" width="170" height="26" as="geometry" />
        </mxCell>
        <mxCell id="zkfFHV4jXpPFQw0GAbJ--17" value="Store" style="swimlane;fontStyle=0;align=center;verticalAlign=top;childLayout=stackLayout;horizontal=1;startSize=26;horizontalStack=0;resizeParent=1;resizeLast=0;collapsible=1;marginBottom=0;rounded=0;shadow=0;strokeWidth=1;" parent="WIyWlLk6GJQsqaUBKTNV-1" vertex="1">
          <mxGeometry x="603" y="262" width="160" height="216" as="geometry">
            <mxRectangle x="550" y="140" width="160" height="26" as="alternateBounds" />
          </mxGeometry>
        </mxCell>
        <mxCell id="zkfFHV4jXpPFQw0GAbJ--18" value="+storeId: String" style="text;align=left;verticalAlign=top;spacingLeft=4;spacingRight=4;overflow=hidden;rotatable=0;points=[[0,0.5],[1,0.5]];portConstraint=eastwest;" parent="zkfFHV4jXpPFQw0GAbJ--17" vertex="1">
          <mxGeometry y="26" width="160" height="26" as="geometry" />
        </mxCell>
        <mxCell id="zkfFHV4jXpPFQw0GAbJ--19" value="+location: String" style="text;align=left;verticalAlign=top;spacingLeft=4;spacingRight=4;overflow=hidden;rotatable=0;points=[[0,0.5],[1,0.5]];portConstraint=eastwest;rounded=0;shadow=0;html=0;" parent="zkfFHV4jXpPFQw0GAbJ--17" vertex="1">
          <mxGeometry y="52" width="160" height="26" as="geometry" />
        </mxCell>
        <mxCell id="zkfFHV4jXpPFQw0GAbJ--20" value="+manager: Employee" style="text;align=left;verticalAlign=top;spacingLeft=4;spacingRight=4;overflow=hidden;rotatable=0;points=[[0,0.5],[1,0.5]];portConstraint=eastwest;rounded=0;shadow=0;html=0;" parent="zkfFHV4jXpPFQw0GAbJ--17" vertex="1">
          <mxGeometry y="78" width="160" height="26" as="geometry" />
        </mxCell>
        <mxCell id="zkfFHV4jXpPFQw0GAbJ--21" value="+operationalHours: String" style="text;align=left;verticalAlign=top;spacingLeft=4;spacingRight=4;overflow=hidden;rotatable=0;points=[[0,0.5],[1,0.5]];portConstraint=eastwest;rounded=0;shadow=0;html=0;" parent="zkfFHV4jXpPFQw0GAbJ--17" vertex="1">
          <mxGeometry y="104" width="160" height="26" as="geometry" />
        </mxCell>
        <mxCell id="zkfFHV4jXpPFQw0GAbJ--23" value="" style="line;html=1;strokeWidth=1;align=left;verticalAlign=middle;spacingTop=-1;spacingLeft=3;spacingRight=3;rotatable=0;labelPosition=right;points=[];portConstraint=eastwest;" parent="zkfFHV4jXpPFQw0GAbJ--17" vertex="1">
          <mxGeometry y="130" width="160" height="8" as="geometry" />
        </mxCell>
        <mxCell id="zkfFHV4jXpPFQw0GAbJ--24" value="+getPerformanceMetrics()" style="text;align=left;verticalAlign=top;spacingLeft=4;spacingRight=4;overflow=hidden;rotatable=0;points=[[0,0.5],[1,0.5]];portConstraint=eastwest;" parent="zkfFHV4jXpPFQw0GAbJ--17" vertex="1">
          <mxGeometry y="138" width="160" height="26" as="geometry" />
        </mxCell>
        <mxCell id="zkfFHV4jXpPFQw0GAbJ--25" value="+processSale()" style="text;align=left;verticalAlign=top;spacingLeft=4;spacingRight=4;overflow=hidden;rotatable=0;points=[[0,0.5],[1,0.5]];portConstraint=eastwest;" parent="zkfFHV4jXpPFQw0GAbJ--17" vertex="1">
          <mxGeometry y="164" width="160" height="26" as="geometry" />
        </mxCell>
        <mxCell id="4bJPrbGNWd6y70NHf2oy-0" value="+manageInventory()" style="text;align=left;verticalAlign=top;spacingLeft=4;spacingRight=4;overflow=hidden;rotatable=0;points=[[0,0.5],[1,0.5]];portConstraint=eastwest;" vertex="1" parent="WIyWlLk6GJQsqaUBKTNV-1">
          <mxGeometry x="603" y="450" width="160" height="26" as="geometry" />
        </mxCell>
        <mxCell id="4bJPrbGNWd6y70NHf2oy-1" value="" style="endArrow=none;html=1;rounded=0;exitX=1.006;exitY=1.154;exitDx=0;exitDy=0;exitPerimeter=0;entryX=0.5;entryY=0;entryDx=0;entryDy=0;" edge="1" parent="WIyWlLk6GJQsqaUBKTNV-1" source="zkfFHV4jXpPFQw0GAbJ--2" target="zkfFHV4jXpPFQw0GAbJ--17">
          <mxGeometry width="50" height="50" relative="1" as="geometry">
            <mxPoint x="513" y="400" as="sourcePoint" />
            <mxPoint x="773" y="280" as="targetPoint" />
            <Array as="points">
              <mxPoint x="683" y="240" />
            </Array>
          </mxGeometry>
        </mxCell>
        <mxCell id="4bJPrbGNWd6y70NHf2oy-2" value="1" style="edgeLabel;html=1;align=center;verticalAlign=middle;resizable=0;points=[];" vertex="1" connectable="0" parent="4bJPrbGNWd6y70NHf2oy-1">
          <mxGeometry x="-0.6814" y="3" relative="1" as="geometry">
            <mxPoint x="-28" y="-9" as="offset" />
          </mxGeometry>
        </mxCell>
        <mxCell id="4bJPrbGNWd6y70NHf2oy-3" value="*" style="edgeLabel;html=1;align=center;verticalAlign=middle;resizable=0;points=[];" vertex="1" connectable="0" parent="4bJPrbGNWd6y70NHf2oy-1">
          <mxGeometry x="0.7254" relative="1" as="geometry">
            <mxPoint x="10" y="20" as="offset" />
          </mxGeometry>
        </mxCell>
        <mxCell id="4bJPrbGNWd6y70NHf2oy-4" value="Warehouse" style="swimlane;fontStyle=0;align=center;verticalAlign=top;childLayout=stackLayout;horizontal=1;startSize=26;horizontalStack=0;resizeParent=1;resizeLast=0;collapsible=1;marginBottom=0;rounded=0;shadow=0;strokeWidth=1;" vertex="1" parent="WIyWlLk6GJQsqaUBKTNV-1">
          <mxGeometry x="127" y="260" width="160" height="216" as="geometry">
            <mxRectangle x="550" y="140" width="160" height="26" as="alternateBounds" />
          </mxGeometry>
        </mxCell>
        <mxCell id="4bJPrbGNWd6y70NHf2oy-5" value="+storeId: String" style="text;align=left;verticalAlign=top;spacingLeft=4;spacingRight=4;overflow=hidden;rotatable=0;points=[[0,0.5],[1,0.5]];portConstraint=eastwest;" vertex="1" parent="4bJPrbGNWd6y70NHf2oy-4">
          <mxGeometry y="26" width="160" height="26" as="geometry" />
        </mxCell>
        <mxCell id="4bJPrbGNWd6y70NHf2oy-6" value="+location: String" style="text;align=left;verticalAlign=top;spacingLeft=4;spacingRight=4;overflow=hidden;rotatable=0;points=[[0,0.5],[1,0.5]];portConstraint=eastwest;rounded=0;shadow=0;html=0;" vertex="1" parent="4bJPrbGNWd6y70NHf2oy-4">
          <mxGeometry y="52" width="160" height="26" as="geometry" />
        </mxCell>
        <mxCell id="4bJPrbGNWd6y70NHf2oy-7" value="+manager: Employee" style="text;align=left;verticalAlign=top;spacingLeft=4;spacingRight=4;overflow=hidden;rotatable=0;points=[[0,0.5],[1,0.5]];portConstraint=eastwest;rounded=0;shadow=0;html=0;" vertex="1" parent="4bJPrbGNWd6y70NHf2oy-4">
          <mxGeometry y="78" width="160" height="26" as="geometry" />
        </mxCell>
        <mxCell id="4bJPrbGNWd6y70NHf2oy-8" value="+operationalHours: String" style="text;align=left;verticalAlign=top;spacingLeft=4;spacingRight=4;overflow=hidden;rotatable=0;points=[[0,0.5],[1,0.5]];portConstraint=eastwest;rounded=0;shadow=0;html=0;" vertex="1" parent="4bJPrbGNWd6y70NHf2oy-4">
          <mxGeometry y="104" width="160" height="26" as="geometry" />
        </mxCell>
        <mxCell id="4bJPrbGNWd6y70NHf2oy-9" value="" style="line;html=1;strokeWidth=1;align=left;verticalAlign=middle;spacingTop=-1;spacingLeft=3;spacingRight=3;rotatable=0;labelPosition=right;points=[];portConstraint=eastwest;" vertex="1" parent="4bJPrbGNWd6y70NHf2oy-4">
          <mxGeometry y="130" width="160" height="8" as="geometry" />
        </mxCell>
        <mxCell id="4bJPrbGNWd6y70NHf2oy-10" value="+getPerformanceMetrics()" style="text;align=left;verticalAlign=top;spacingLeft=4;spacingRight=4;overflow=hidden;rotatable=0;points=[[0,0.5],[1,0.5]];portConstraint=eastwest;" vertex="1" parent="4bJPrbGNWd6y70NHf2oy-4">
          <mxGeometry y="138" width="160" height="26" as="geometry" />
        </mxCell>
        <mxCell id="4bJPrbGNWd6y70NHf2oy-11" value="+processSale()" style="text;align=left;verticalAlign=top;spacingLeft=4;spacingRight=4;overflow=hidden;rotatable=0;points=[[0,0.5],[1,0.5]];portConstraint=eastwest;" vertex="1" parent="4bJPrbGNWd6y70NHf2oy-4">
          <mxGeometry y="164" width="160" height="26" as="geometry" />
        </mxCell>
        <mxCell id="4bJPrbGNWd6y70NHf2oy-12" value="+manageInventory()" style="text;align=left;verticalAlign=top;spacingLeft=4;spacingRight=4;overflow=hidden;rotatable=0;points=[[0,0.5],[1,0.5]];portConstraint=eastwest;" vertex="1" parent="WIyWlLk6GJQsqaUBKTNV-1">
          <mxGeometry x="127" y="448" width="160" height="26" as="geometry" />
        </mxCell>
        <mxCell id="4bJPrbGNWd6y70NHf2oy-13" value="" style="endArrow=none;html=1;rounded=0;entryX=0.5;entryY=0;entryDx=0;entryDy=0;exitX=-0.011;exitY=0.123;exitDx=0;exitDy=0;exitPerimeter=0;" edge="1" parent="WIyWlLk6GJQsqaUBKTNV-1" source="zkfFHV4jXpPFQw0GAbJ--3" target="4bJPrbGNWd6y70NHf2oy-4">
          <mxGeometry width="50" height="50" relative="1" as="geometry">
            <mxPoint x="293" y="220" as="sourcePoint" />
            <mxPoint x="343" y="200" as="targetPoint" />
            <Array as="points">
              <mxPoint x="207" y="241" />
            </Array>
          </mxGeometry>
        </mxCell>
        <mxCell id="4bJPrbGNWd6y70NHf2oy-14" value="1" style="edgeLabel;html=1;align=center;verticalAlign=middle;resizable=0;points=[];" vertex="1" connectable="0" parent="4bJPrbGNWd6y70NHf2oy-13">
          <mxGeometry x="-0.6814" y="3" relative="1" as="geometry">
            <mxPoint x="23" y="-14" as="offset" />
          </mxGeometry>
        </mxCell>
        <mxCell id="4bJPrbGNWd6y70NHf2oy-15" value="*" style="edgeLabel;html=1;align=center;verticalAlign=middle;resizable=0;points=[];" vertex="1" connectable="0" parent="4bJPrbGNWd6y70NHf2oy-13">
          <mxGeometry x="0.7254" relative="1" as="geometry">
            <mxPoint x="-14" y="17" as="offset" />
          </mxGeometry>
        </mxCell>
        <mxCell id="4bJPrbGNWd6y70NHf2oy-24" value="Inventory" style="swimlane;fontStyle=0;align=center;verticalAlign=top;childLayout=stackLayout;horizontal=1;startSize=26;horizontalStack=0;resizeParent=1;resizeLast=0;collapsible=1;marginBottom=0;rounded=0;shadow=0;strokeWidth=1;" vertex="1" parent="WIyWlLk6GJQsqaUBKTNV-1">
          <mxGeometry x="193" y="530" width="174" height="240" as="geometry">
            <mxRectangle x="550" y="140" width="160" height="26" as="alternateBounds" />
          </mxGeometry>
        </mxCell>
        <mxCell id="4bJPrbGNWd6y70NHf2oy-25" value="-locationId: String" style="text;align=left;verticalAlign=top;spacingLeft=4;spacingRight=4;overflow=hidden;rotatable=0;points=[[0,0.5],[1,0.5]];portConstraint=eastwest;" vertex="1" parent="4bJPrbGNWd6y70NHf2oy-24">
          <mxGeometry y="26" width="174" height="26" as="geometry" />
        </mxCell>
        <mxCell id="4bJPrbGNWd6y70NHf2oy-26" value="-currentStock: Integer" style="text;align=left;verticalAlign=top;spacingLeft=4;spacingRight=4;overflow=hidden;rotatable=0;points=[[0,0.5],[1,0.5]];portConstraint=eastwest;rounded=0;shadow=0;html=0;" vertex="1" parent="4bJPrbGNWd6y70NHf2oy-24">
          <mxGeometry y="52" width="174" height="26" as="geometry" />
        </mxCell>
        <mxCell id="4bJPrbGNWd6y70NHf2oy-27" value="-minThreshold: Integer" style="text;align=left;verticalAlign=top;spacingLeft=4;spacingRight=4;overflow=hidden;rotatable=0;points=[[0,0.5],[1,0.5]];portConstraint=eastwest;rounded=0;shadow=0;html=0;" vertex="1" parent="4bJPrbGNWd6y70NHf2oy-24">
          <mxGeometry y="78" width="174" height="26" as="geometry" />
        </mxCell>
        <mxCell id="4bJPrbGNWd6y70NHf2oy-28" value="-maxThreshold: Integer" style="text;align=left;verticalAlign=top;spacingLeft=4;spacingRight=4;overflow=hidden;rotatable=0;points=[[0,0.5],[1,0.5]];portConstraint=eastwest;rounded=0;shadow=0;html=0;" vertex="1" parent="4bJPrbGNWd6y70NHf2oy-24">
          <mxGeometry y="104" width="174" height="26" as="geometry" />
        </mxCell>
        <mxCell id="4bJPrbGNWd6y70NHf2oy-29" value="" style="line;html=1;strokeWidth=1;align=left;verticalAlign=middle;spacingTop=-1;spacingLeft=3;spacingRight=3;rotatable=0;labelPosition=right;points=[];portConstraint=eastwest;" vertex="1" parent="4bJPrbGNWd6y70NHf2oy-24">
          <mxGeometry y="130" width="174" height="8" as="geometry" />
        </mxCell>
        <mxCell id="4bJPrbGNWd6y70NHf2oy-30" value="+updateStock()" style="text;align=left;verticalAlign=top;spacingLeft=4;spacingRight=4;overflow=hidden;rotatable=0;points=[[0,0.5],[1,0.5]];portConstraint=eastwest;" vertex="1" parent="4bJPrbGNWd6y70NHf2oy-24">
          <mxGeometry y="138" width="174" height="26" as="geometry" />
        </mxCell>
        <mxCell id="4bJPrbGNWd6y70NHf2oy-31" value="+checkLevel()" style="text;align=left;verticalAlign=top;spacingLeft=4;spacingRight=4;overflow=hidden;rotatable=0;points=[[0,0.5],[1,0.5]];portConstraint=eastwest;" vertex="1" parent="4bJPrbGNWd6y70NHf2oy-24">
          <mxGeometry y="164" width="174" height="26" as="geometry" />
        </mxCell>
        <mxCell id="4bJPrbGNWd6y70NHf2oy-32" value="+generateAlerts()" style="text;align=left;verticalAlign=top;spacingLeft=4;spacingRight=4;overflow=hidden;rotatable=0;points=[[0,0.5],[1,0.5]];portConstraint=eastwest;" vertex="1" parent="WIyWlLk6GJQsqaUBKTNV-1">
          <mxGeometry x="207" y="718" width="160" height="26" as="geometry" />
        </mxCell>
        <mxCell id="4bJPrbGNWd6y70NHf2oy-33" value="StockTransfer" style="swimlane;fontStyle=0;align=center;verticalAlign=top;childLayout=stackLayout;horizontal=1;startSize=26;horizontalStack=0;resizeParent=1;resizeLast=0;collapsible=1;marginBottom=0;rounded=0;shadow=0;strokeWidth=1;" vertex="1" parent="WIyWlLk6GJQsqaUBKTNV-1">
          <mxGeometry x="13" y="530" width="160" height="216" as="geometry">
            <mxRectangle x="550" y="140" width="160" height="26" as="alternateBounds" />
          </mxGeometry>
        </mxCell>
        <mxCell id="4bJPrbGNWd6y70NHf2oy-34" value="-transferId: String" style="text;align=left;verticalAlign=top;spacingLeft=4;spacingRight=4;overflow=hidden;rotatable=0;points=[[0,0.5],[1,0.5]];portConstraint=eastwest;" vertex="1" parent="4bJPrbGNWd6y70NHf2oy-33">
          <mxGeometry y="26" width="160" height="26" as="geometry" />
        </mxCell>
        <mxCell id="4bJPrbGNWd6y70NHf2oy-35" value="-sourceLocation: String" style="text;align=left;verticalAlign=top;spacingLeft=4;spacingRight=4;overflow=hidden;rotatable=0;points=[[0,0.5],[1,0.5]];portConstraint=eastwest;rounded=0;shadow=0;html=0;" vertex="1" parent="4bJPrbGNWd6y70NHf2oy-33">
          <mxGeometry y="52" width="160" height="26" as="geometry" />
        </mxCell>
        <mxCell id="4bJPrbGNWd6y70NHf2oy-36" value="-destinationLocation: String" style="text;align=left;verticalAlign=top;spacingLeft=4;spacingRight=4;overflow=hidden;rotatable=0;points=[[0,0.5],[1,0.5]];portConstraint=eastwest;rounded=0;shadow=0;html=0;" vertex="1" parent="4bJPrbGNWd6y70NHf2oy-33">
          <mxGeometry y="78" width="160" height="26" as="geometry" />
        </mxCell>
        <mxCell id="4bJPrbGNWd6y70NHf2oy-37" value="-status: String" style="text;align=left;verticalAlign=top;spacingLeft=4;spacingRight=4;overflow=hidden;rotatable=0;points=[[0,0.5],[1,0.5]];portConstraint=eastwest;rounded=0;shadow=0;html=0;" vertex="1" parent="4bJPrbGNWd6y70NHf2oy-33">
          <mxGeometry y="104" width="160" height="26" as="geometry" />
        </mxCell>
        <mxCell id="4bJPrbGNWd6y70NHf2oy-38" value="" style="line;html=1;strokeWidth=1;align=left;verticalAlign=middle;spacingTop=-1;spacingLeft=3;spacingRight=3;rotatable=0;labelPosition=right;points=[];portConstraint=eastwest;" vertex="1" parent="4bJPrbGNWd6y70NHf2oy-33">
          <mxGeometry y="130" width="160" height="8" as="geometry" />
        </mxCell>
        <mxCell id="4bJPrbGNWd6y70NHf2oy-39" value="+initiateTransfer()" style="text;align=left;verticalAlign=top;spacingLeft=4;spacingRight=4;overflow=hidden;rotatable=0;points=[[0,0.5],[1,0.5]];portConstraint=eastwest;" vertex="1" parent="4bJPrbGNWd6y70NHf2oy-33">
          <mxGeometry y="138" width="160" height="26" as="geometry" />
        </mxCell>
        <mxCell id="4bJPrbGNWd6y70NHf2oy-40" value="+updateStatus()" style="text;align=left;verticalAlign=top;spacingLeft=4;spacingRight=4;overflow=hidden;rotatable=0;points=[[0,0.5],[1,0.5]];portConstraint=eastwest;" vertex="1" parent="4bJPrbGNWd6y70NHf2oy-33">
          <mxGeometry y="164" width="160" height="26" as="geometry" />
        </mxCell>
        <mxCell id="4bJPrbGNWd6y70NHf2oy-41" value="+completeTransfer()" style="text;align=left;verticalAlign=top;spacingLeft=4;spacingRight=4;overflow=hidden;rotatable=0;points=[[0,0.5],[1,0.5]];portConstraint=eastwest;" vertex="1" parent="WIyWlLk6GJQsqaUBKTNV-1">
          <mxGeometry x="13" y="718" width="160" height="26" as="geometry" />
        </mxCell>
        <mxCell id="4bJPrbGNWd6y70NHf2oy-42" value="Employee" style="swimlane;fontStyle=0;align=center;verticalAlign=top;childLayout=stackLayout;horizontal=1;startSize=26;horizontalStack=0;resizeParent=1;resizeLast=0;collapsible=1;marginBottom=0;rounded=0;shadow=0;strokeWidth=1;" vertex="1" parent="WIyWlLk6GJQsqaUBKTNV-1">
          <mxGeometry x="392" y="521" width="160" height="252" as="geometry">
            <mxRectangle x="550" y="140" width="160" height="26" as="alternateBounds" />
          </mxGeometry>
        </mxCell>
        <mxCell id="4bJPrbGNWd6y70NHf2oy-43" value="-employeeId: String" style="text;align=left;verticalAlign=top;spacingLeft=4;spacingRight=4;overflow=hidden;rotatable=0;points=[[0,0.5],[1,0.5]];portConstraint=eastwest;" vertex="1" parent="4bJPrbGNWd6y70NHf2oy-42">
          <mxGeometry y="26" width="160" height="26" as="geometry" />
        </mxCell>
        <mxCell id="4bJPrbGNWd6y70NHf2oy-44" value="-name: String" style="text;align=left;verticalAlign=top;spacingLeft=4;spacingRight=4;overflow=hidden;rotatable=0;points=[[0,0.5],[1,0.5]];portConstraint=eastwest;rounded=0;shadow=0;html=0;" vertex="1" parent="4bJPrbGNWd6y70NHf2oy-42">
          <mxGeometry y="52" width="160" height="26" as="geometry" />
        </mxCell>
        <mxCell id="4bJPrbGNWd6y70NHf2oy-45" value="-position: String" style="text;align=left;verticalAlign=top;spacingLeft=4;spacingRight=4;overflow=hidden;rotatable=0;points=[[0,0.5],[1,0.5]];portConstraint=eastwest;rounded=0;shadow=0;html=0;" vertex="1" parent="4bJPrbGNWd6y70NHf2oy-42">
          <mxGeometry y="78" width="160" height="26" as="geometry" />
        </mxCell>
        <mxCell id="4bJPrbGNWd6y70NHf2oy-46" value="-department: String" style="text;align=left;verticalAlign=top;spacingLeft=4;spacingRight=4;overflow=hidden;rotatable=0;points=[[0,0.5],[1,0.5]];portConstraint=eastwest;rounded=0;shadow=0;html=0;" vertex="1" parent="4bJPrbGNWd6y70NHf2oy-42">
          <mxGeometry y="104" width="160" height="26" as="geometry" />
        </mxCell>
        <mxCell id="4bJPrbGNWd6y70NHf2oy-70" value="-salary: Decimal" style="text;align=left;verticalAlign=top;spacingLeft=4;spacingRight=4;overflow=hidden;rotatable=0;points=[[0,0.5],[1,0.5]];portConstraint=eastwest;rounded=0;shadow=0;html=0;" vertex="1" parent="4bJPrbGNWd6y70NHf2oy-42">
          <mxGeometry y="130" width="160" height="26" as="geometry" />
        </mxCell>
        <mxCell id="4bJPrbGNWd6y70NHf2oy-47" value="" style="line;html=1;strokeWidth=1;align=left;verticalAlign=middle;spacingTop=-1;spacingLeft=3;spacingRight=3;rotatable=0;labelPosition=right;points=[];portConstraint=eastwest;" vertex="1" parent="4bJPrbGNWd6y70NHf2oy-42">
          <mxGeometry y="156" width="160" height="8" as="geometry" />
        </mxCell>
        <mxCell id="4bJPrbGNWd6y70NHf2oy-50" value="+calculatePayroll()" style="text;align=left;verticalAlign=top;spacingLeft=4;spacingRight=4;overflow=hidden;rotatable=0;points=[[0,0.5],[1,0.5]];portConstraint=eastwest;" vertex="1" parent="4bJPrbGNWd6y70NHf2oy-42">
          <mxGeometry y="164" width="160" height="26" as="geometry" />
        </mxCell>
        <mxCell id="4bJPrbGNWd6y70NHf2oy-48" value="+trackAttendance()" style="text;align=left;verticalAlign=top;spacingLeft=4;spacingRight=4;overflow=hidden;rotatable=0;points=[[0,0.5],[1,0.5]];portConstraint=eastwest;" vertex="1" parent="4bJPrbGNWd6y70NHf2oy-42">
          <mxGeometry y="190" width="160" height="26" as="geometry" />
        </mxCell>
        <mxCell id="4bJPrbGNWd6y70NHf2oy-49" value="+evaluatePerformance()" style="text;align=left;verticalAlign=top;spacingLeft=4;spacingRight=4;overflow=hidden;rotatable=0;points=[[0,0.5],[1,0.5]];portConstraint=eastwest;" vertex="1" parent="4bJPrbGNWd6y70NHf2oy-42">
          <mxGeometry y="216" width="160" height="26" as="geometry" />
        </mxCell>
        <mxCell id="4bJPrbGNWd6y70NHf2oy-51" value="Report" style="swimlane;fontStyle=0;align=center;verticalAlign=top;childLayout=stackLayout;horizontal=1;startSize=26;horizontalStack=0;resizeParent=1;resizeLast=0;collapsible=1;marginBottom=0;rounded=0;shadow=0;strokeWidth=1;" vertex="1" parent="WIyWlLk6GJQsqaUBKTNV-1">
          <mxGeometry x="563" y="522" width="160" height="194" as="geometry">
            <mxRectangle x="550" y="140" width="160" height="26" as="alternateBounds" />
          </mxGeometry>
        </mxCell>
        <mxCell id="4bJPrbGNWd6y70NHf2oy-52" value="+reportId: String" style="text;align=left;verticalAlign=top;spacingLeft=4;spacingRight=4;overflow=hidden;rotatable=0;points=[[0,0.5],[1,0.5]];portConstraint=eastwest;" vertex="1" parent="4bJPrbGNWd6y70NHf2oy-51">
          <mxGeometry y="26" width="160" height="26" as="geometry" />
        </mxCell>
        <mxCell id="4bJPrbGNWd6y70NHf2oy-53" value="-type: String" style="text;align=left;verticalAlign=top;spacingLeft=4;spacingRight=4;overflow=hidden;rotatable=0;points=[[0,0.5],[1,0.5]];portConstraint=eastwest;rounded=0;shadow=0;html=0;" vertex="1" parent="4bJPrbGNWd6y70NHf2oy-51">
          <mxGeometry y="52" width="160" height="26" as="geometry" />
        </mxCell>
        <mxCell id="4bJPrbGNWd6y70NHf2oy-54" value="-period: String" style="text;align=left;verticalAlign=top;spacingLeft=4;spacingRight=4;overflow=hidden;rotatable=0;points=[[0,0.5],[1,0.5]];portConstraint=eastwest;rounded=0;shadow=0;html=0;" vertex="1" parent="4bJPrbGNWd6y70NHf2oy-51">
          <mxGeometry y="78" width="160" height="26" as="geometry" />
        </mxCell>
        <mxCell id="4bJPrbGNWd6y70NHf2oy-55" value="-data: Object" style="text;align=left;verticalAlign=top;spacingLeft=4;spacingRight=4;overflow=hidden;rotatable=0;points=[[0,0.5],[1,0.5]];portConstraint=eastwest;rounded=0;shadow=0;html=0;" vertex="1" parent="4bJPrbGNWd6y70NHf2oy-51">
          <mxGeometry y="104" width="160" height="26" as="geometry" />
        </mxCell>
        <mxCell id="4bJPrbGNWd6y70NHf2oy-56" value="" style="line;html=1;strokeWidth=1;align=left;verticalAlign=middle;spacingTop=-1;spacingLeft=3;spacingRight=3;rotatable=0;labelPosition=right;points=[];portConstraint=eastwest;" vertex="1" parent="4bJPrbGNWd6y70NHf2oy-51">
          <mxGeometry y="130" width="160" height="8" as="geometry" />
        </mxCell>
        <mxCell id="4bJPrbGNWd6y70NHf2oy-57" value="+generateReport()" style="text;align=left;verticalAlign=top;spacingLeft=4;spacingRight=4;overflow=hidden;rotatable=0;points=[[0,0.5],[1,0.5]];portConstraint=eastwest;" vertex="1" parent="4bJPrbGNWd6y70NHf2oy-51">
          <mxGeometry y="138" width="160" height="26" as="geometry" />
        </mxCell>
        <mxCell id="4bJPrbGNWd6y70NHf2oy-58" value="+exportReport()" style="text;align=left;verticalAlign=top;spacingLeft=4;spacingRight=4;overflow=hidden;rotatable=0;points=[[0,0.5],[1,0.5]];portConstraint=eastwest;" vertex="1" parent="4bJPrbGNWd6y70NHf2oy-51">
          <mxGeometry y="164" width="160" height="26" as="geometry" />
        </mxCell>
        <mxCell id="4bJPrbGNWd6y70NHf2oy-60" value="Financial Transaction" style="swimlane;fontStyle=0;align=center;verticalAlign=top;childLayout=stackLayout;horizontal=1;startSize=26;horizontalStack=0;resizeParent=1;resizeLast=0;collapsible=1;marginBottom=0;rounded=0;shadow=0;strokeWidth=1;" vertex="1" parent="WIyWlLk6GJQsqaUBKTNV-1">
          <mxGeometry x="733" y="520" width="160" height="196" as="geometry">
            <mxRectangle x="550" y="140" width="160" height="26" as="alternateBounds" />
          </mxGeometry>
        </mxCell>
        <mxCell id="4bJPrbGNWd6y70NHf2oy-61" value="-transactionId: String" style="text;align=left;verticalAlign=top;spacingLeft=4;spacingRight=4;overflow=hidden;rotatable=0;points=[[0,0.5],[1,0.5]];portConstraint=eastwest;" vertex="1" parent="4bJPrbGNWd6y70NHf2oy-60">
          <mxGeometry y="26" width="160" height="26" as="geometry" />
        </mxCell>
        <mxCell id="4bJPrbGNWd6y70NHf2oy-62" value="-type: String" style="text;align=left;verticalAlign=top;spacingLeft=4;spacingRight=4;overflow=hidden;rotatable=0;points=[[0,0.5],[1,0.5]];portConstraint=eastwest;rounded=0;shadow=0;html=0;" vertex="1" parent="4bJPrbGNWd6y70NHf2oy-60">
          <mxGeometry y="52" width="160" height="26" as="geometry" />
        </mxCell>
        <mxCell id="4bJPrbGNWd6y70NHf2oy-63" value="-amount: Decimal" style="text;align=left;verticalAlign=top;spacingLeft=4;spacingRight=4;overflow=hidden;rotatable=0;points=[[0,0.5],[1,0.5]];portConstraint=eastwest;rounded=0;shadow=0;html=0;" vertex="1" parent="4bJPrbGNWd6y70NHf2oy-60">
          <mxGeometry y="78" width="160" height="26" as="geometry" />
        </mxCell>
        <mxCell id="4bJPrbGNWd6y70NHf2oy-64" value="-date: DateTime" style="text;align=left;verticalAlign=top;spacingLeft=4;spacingRight=4;overflow=hidden;rotatable=0;points=[[0,0.5],[1,0.5]];portConstraint=eastwest;rounded=0;shadow=0;html=0;" vertex="1" parent="4bJPrbGNWd6y70NHf2oy-60">
          <mxGeometry y="104" width="160" height="26" as="geometry" />
        </mxCell>
        <mxCell id="4bJPrbGNWd6y70NHf2oy-65" value="" style="line;html=1;strokeWidth=1;align=left;verticalAlign=middle;spacingTop=-1;spacingLeft=3;spacingRight=3;rotatable=0;labelPosition=right;points=[];portConstraint=eastwest;" vertex="1" parent="4bJPrbGNWd6y70NHf2oy-60">
          <mxGeometry y="130" width="160" height="8" as="geometry" />
        </mxCell>
        <mxCell id="4bJPrbGNWd6y70NHf2oy-66" value="+recordTransaction()" style="text;align=left;verticalAlign=top;spacingLeft=4;spacingRight=4;overflow=hidden;rotatable=0;points=[[0,0.5],[1,0.5]];portConstraint=eastwest;" vertex="1" parent="4bJPrbGNWd6y70NHf2oy-60">
          <mxGeometry y="138" width="160" height="26" as="geometry" />
        </mxCell>
        <mxCell id="4bJPrbGNWd6y70NHf2oy-67" value="+valiadateTransaction()" style="text;align=left;verticalAlign=top;spacingLeft=4;spacingRight=4;overflow=hidden;rotatable=0;points=[[0,0.5],[1,0.5]];portConstraint=eastwest;" vertex="1" parent="4bJPrbGNWd6y70NHf2oy-60">
          <mxGeometry y="164" width="160" height="26" as="geometry" />
        </mxCell>
        <mxCell id="4bJPrbGNWd6y70NHf2oy-69" value="+calculateReorderPoints()" style="text;align=left;verticalAlign=top;spacingLeft=4;spacingRight=4;overflow=hidden;rotatable=0;points=[[0,0.5],[1,0.5]];portConstraint=eastwest;" vertex="1" parent="WIyWlLk6GJQsqaUBKTNV-1">
          <mxGeometry x="194" y="744" width="160" height="26" as="geometry" />
        </mxCell>
        <mxCell id="4bJPrbGNWd6y70NHf2oy-71" value="" style="endArrow=none;html=1;rounded=0;entryX=0.5;entryY=0;entryDx=0;entryDy=0;exitX=-0.011;exitY=0.123;exitDx=0;exitDy=0;exitPerimeter=0;" edge="1" parent="WIyWlLk6GJQsqaUBKTNV-1" target="4bJPrbGNWd6y70NHf2oy-33">
          <mxGeometry width="50" height="50" relative="1" as="geometry">
            <mxPoint x="127" y="389" as="sourcePoint" />
            <mxPoint x="-7" y="448" as="targetPoint" />
            <Array as="points">
              <mxPoint x="93" y="390" />
            </Array>
          </mxGeometry>
        </mxCell>
        <mxCell id="4bJPrbGNWd6y70NHf2oy-72" value="1" style="edgeLabel;html=1;align=center;verticalAlign=middle;resizable=0;points=[];" vertex="1" connectable="0" parent="4bJPrbGNWd6y70NHf2oy-71">
          <mxGeometry x="-0.6814" y="3" relative="1" as="geometry">
            <mxPoint x="23" y="-14" as="offset" />
          </mxGeometry>
        </mxCell>
        <mxCell id="4bJPrbGNWd6y70NHf2oy-73" value="*" style="edgeLabel;html=1;align=center;verticalAlign=middle;resizable=0;points=[];" vertex="1" connectable="0" parent="4bJPrbGNWd6y70NHf2oy-71">
          <mxGeometry x="0.7254" relative="1" as="geometry">
            <mxPoint x="-14" y="17" as="offset" />
          </mxGeometry>
        </mxCell>
        <mxCell id="4bJPrbGNWd6y70NHf2oy-77" value="" style="endArrow=none;html=1;rounded=0;entryX=0.5;entryY=0;entryDx=0;entryDy=0;exitX=0;exitY=0.5;exitDx=0;exitDy=0;" edge="1" parent="WIyWlLk6GJQsqaUBKTNV-1" source="zkfFHV4jXpPFQw0GAbJ--21" target="4bJPrbGNWd6y70NHf2oy-42">
          <mxGeometry width="50" height="50" relative="1" as="geometry">
            <mxPoint x="557" y="389" as="sourcePoint" />
            <mxPoint x="423" y="448" as="targetPoint" />
            <Array as="points">
              <mxPoint x="473" y="380" />
            </Array>
          </mxGeometry>
        </mxCell>
        <mxCell id="4bJPrbGNWd6y70NHf2oy-78" value="1" style="edgeLabel;html=1;align=center;verticalAlign=middle;resizable=0;points=[];" vertex="1" connectable="0" parent="4bJPrbGNWd6y70NHf2oy-77">
          <mxGeometry x="-0.6814" y="3" relative="1" as="geometry">
            <mxPoint x="23" y="-14" as="offset" />
          </mxGeometry>
        </mxCell>
        <mxCell id="4bJPrbGNWd6y70NHf2oy-79" value="*" style="edgeLabel;html=1;align=center;verticalAlign=middle;resizable=0;points=[];" vertex="1" connectable="0" parent="4bJPrbGNWd6y70NHf2oy-77">
          <mxGeometry x="0.7254" relative="1" as="geometry">
            <mxPoint x="-14" y="17" as="offset" />
          </mxGeometry>
        </mxCell>
        <mxCell id="4bJPrbGNWd6y70NHf2oy-80" value="" style="endArrow=none;html=1;rounded=0;entryX=0.25;entryY=1;entryDx=0;entryDy=0;exitX=0.5;exitY=0;exitDx=0;exitDy=0;" edge="1" parent="WIyWlLk6GJQsqaUBKTNV-1" source="4bJPrbGNWd6y70NHf2oy-51" target="zkfFHV4jXpPFQw0GAbJ--17">
          <mxGeometry width="50" height="50" relative="1" as="geometry">
            <mxPoint x="533" y="530" as="sourcePoint" />
            <mxPoint x="583" y="480" as="targetPoint" />
          </mxGeometry>
        </mxCell>
        <mxCell id="4bJPrbGNWd6y70NHf2oy-81" value="1" style="edgeLabel;html=1;align=center;verticalAlign=middle;resizable=0;points=[];" vertex="1" connectable="0" parent="4bJPrbGNWd6y70NHf2oy-80">
          <mxGeometry x="0.4818" relative="1" as="geometry">
            <mxPoint x="10" as="offset" />
          </mxGeometry>
        </mxCell>
        <mxCell id="4bJPrbGNWd6y70NHf2oy-82" value="*" style="edgeLabel;html=1;align=center;verticalAlign=middle;resizable=0;points=[];" vertex="1" connectable="0" parent="4bJPrbGNWd6y70NHf2oy-80">
          <mxGeometry x="-0.5182" y="-1" relative="1" as="geometry">
            <mxPoint x="9" as="offset" />
          </mxGeometry>
        </mxCell>
        <mxCell id="4bJPrbGNWd6y70NHf2oy-84" value="" style="endArrow=none;html=1;rounded=0;exitX=1;exitY=0.5;exitDx=0;exitDy=0;entryX=0.75;entryY=0;entryDx=0;entryDy=0;" edge="1" parent="WIyWlLk6GJQsqaUBKTNV-1" source="zkfFHV4jXpPFQw0GAbJ--21" target="4bJPrbGNWd6y70NHf2oy-60">
          <mxGeometry width="50" height="50" relative="1" as="geometry">
            <mxPoint x="533" y="430" as="sourcePoint" />
            <mxPoint x="583" y="380" as="targetPoint" />
            <Array as="points">
              <mxPoint x="853" y="380" />
            </Array>
          </mxGeometry>
        </mxCell>
        <mxCell id="4bJPrbGNWd6y70NHf2oy-86" value="1" style="edgeLabel;html=1;align=center;verticalAlign=middle;resizable=0;points=[];" vertex="1" connectable="0" parent="4bJPrbGNWd6y70NHf2oy-84">
          <mxGeometry x="-0.8451" y="-1" relative="1" as="geometry">
            <mxPoint y="-10" as="offset" />
          </mxGeometry>
        </mxCell>
        <mxCell id="4bJPrbGNWd6y70NHf2oy-87" value="*" style="edgeLabel;html=1;align=center;verticalAlign=middle;resizable=0;points=[];" vertex="1" connectable="0" parent="4bJPrbGNWd6y70NHf2oy-84">
          <mxGeometry x="0.8557" y="2" relative="1" as="geometry">
            <mxPoint x="8" as="offset" />
          </mxGeometry>
        </mxCell>
        <mxCell id="4bJPrbGNWd6y70NHf2oy-88" value="" style="endArrow=none;html=1;rounded=0;entryX=0.75;entryY=1;entryDx=0;entryDy=0;exitX=0.25;exitY=0;exitDx=0;exitDy=0;" edge="1" parent="WIyWlLk6GJQsqaUBKTNV-1" source="4bJPrbGNWd6y70NHf2oy-24" target="4bJPrbGNWd6y70NHf2oy-4">
          <mxGeometry width="50" height="50" relative="1" as="geometry">
            <mxPoint x="653" y="532" as="sourcePoint" />
            <mxPoint x="653" y="488" as="targetPoint" />
          </mxGeometry>
        </mxCell>
        <mxCell id="4bJPrbGNWd6y70NHf2oy-89" value="1" style="edgeLabel;html=1;align=center;verticalAlign=middle;resizable=0;points=[];" vertex="1" connectable="0" parent="4bJPrbGNWd6y70NHf2oy-88">
          <mxGeometry x="0.4818" relative="1" as="geometry">
            <mxPoint x="10" as="offset" />
          </mxGeometry>
        </mxCell>
        <mxCell id="4bJPrbGNWd6y70NHf2oy-90" value="*" style="edgeLabel;html=1;align=center;verticalAlign=middle;resizable=0;points=[];" vertex="1" connectable="0" parent="4bJPrbGNWd6y70NHf2oy-88">
          <mxGeometry x="-0.5182" y="-1" relative="1" as="geometry">
            <mxPoint x="9" as="offset" />
          </mxGeometry>
        </mxCell>
        <mxCell id="4bJPrbGNWd6y70NHf2oy-91" value="Schedule" style="swimlane;fontStyle=0;align=center;verticalAlign=top;childLayout=stackLayout;horizontal=1;startSize=26;horizontalStack=0;resizeParent=1;resizeLast=0;collapsible=1;marginBottom=0;rounded=0;shadow=0;strokeWidth=1;" vertex="1" parent="WIyWlLk6GJQsqaUBKTNV-1">
          <mxGeometry x="421" y="819" width="160" height="197" as="geometry">
            <mxRectangle x="550" y="140" width="160" height="26" as="alternateBounds" />
          </mxGeometry>
        </mxCell>
        <mxCell id="4bJPrbGNWd6y70NHf2oy-92" value="-scheduleId: String" style="text;align=left;verticalAlign=top;spacingLeft=4;spacingRight=4;overflow=hidden;rotatable=0;points=[[0,0.5],[1,0.5]];portConstraint=eastwest;" vertex="1" parent="4bJPrbGNWd6y70NHf2oy-91">
          <mxGeometry y="26" width="160" height="26" as="geometry" />
        </mxCell>
        <mxCell id="4bJPrbGNWd6y70NHf2oy-93" value="-employee: Employee" style="text;align=left;verticalAlign=top;spacingLeft=4;spacingRight=4;overflow=hidden;rotatable=0;points=[[0,0.5],[1,0.5]];portConstraint=eastwest;rounded=0;shadow=0;html=0;" vertex="1" parent="4bJPrbGNWd6y70NHf2oy-91">
          <mxGeometry y="52" width="160" height="26" as="geometry" />
        </mxCell>
        <mxCell id="4bJPrbGNWd6y70NHf2oy-94" value="-shifts: Array" style="text;align=left;verticalAlign=top;spacingLeft=4;spacingRight=4;overflow=hidden;rotatable=0;points=[[0,0.5],[1,0.5]];portConstraint=eastwest;rounded=0;shadow=0;html=0;" vertex="1" parent="4bJPrbGNWd6y70NHf2oy-91">
          <mxGeometry y="78" width="160" height="26" as="geometry" />
        </mxCell>
        <mxCell id="4bJPrbGNWd6y70NHf2oy-96" value="" style="line;html=1;strokeWidth=1;align=left;verticalAlign=middle;spacingTop=-1;spacingLeft=3;spacingRight=3;rotatable=0;labelPosition=right;points=[];portConstraint=eastwest;" vertex="1" parent="4bJPrbGNWd6y70NHf2oy-91">
          <mxGeometry y="104" width="160" height="8" as="geometry" />
        </mxCell>
        <mxCell id="4bJPrbGNWd6y70NHf2oy-97" value="+AssignShift()" style="text;align=left;verticalAlign=top;spacingLeft=4;spacingRight=4;overflow=hidden;rotatable=0;points=[[0,0.5],[1,0.5]];portConstraint=eastwest;" vertex="1" parent="4bJPrbGNWd6y70NHf2oy-91">
          <mxGeometry y="112" width="160" height="26" as="geometry" />
        </mxCell>
        <mxCell id="4bJPrbGNWd6y70NHf2oy-98" value="+updateSchedule()" style="text;align=left;verticalAlign=top;spacingLeft=4;spacingRight=4;overflow=hidden;rotatable=0;points=[[0,0.5],[1,0.5]];portConstraint=eastwest;" vertex="1" parent="4bJPrbGNWd6y70NHf2oy-91">
          <mxGeometry y="138" width="160" height="26" as="geometry" />
        </mxCell>
        <mxCell id="4bJPrbGNWd6y70NHf2oy-99" value="+checkAvailability()" style="text;align=left;verticalAlign=top;spacingLeft=4;spacingRight=4;overflow=hidden;rotatable=0;points=[[0,0.5],[1,0.5]];portConstraint=eastwest;" vertex="1" parent="WIyWlLk6GJQsqaUBKTNV-1">
          <mxGeometry x="421" y="987" width="160" height="26" as="geometry" />
        </mxCell>
        <mxCell id="4bJPrbGNWd6y70NHf2oy-100" value="Department" style="swimlane;fontStyle=0;align=center;verticalAlign=top;childLayout=stackLayout;horizontal=1;startSize=26;horizontalStack=0;resizeParent=1;resizeLast=0;collapsible=1;marginBottom=0;rounded=0;shadow=0;strokeWidth=1;" vertex="1" parent="WIyWlLk6GJQsqaUBKTNV-1">
          <mxGeometry x="229" y="820" width="160" height="197" as="geometry">
            <mxRectangle x="550" y="140" width="160" height="26" as="alternateBounds" />
          </mxGeometry>
        </mxCell>
        <mxCell id="4bJPrbGNWd6y70NHf2oy-101" value="-departmentd: String" style="text;align=left;verticalAlign=top;spacingLeft=4;spacingRight=4;overflow=hidden;rotatable=0;points=[[0,0.5],[1,0.5]];portConstraint=eastwest;" vertex="1" parent="4bJPrbGNWd6y70NHf2oy-100">
          <mxGeometry y="26" width="160" height="26" as="geometry" />
        </mxCell>
        <mxCell id="4bJPrbGNWd6y70NHf2oy-102" value="-name: String" style="text;align=left;verticalAlign=top;spacingLeft=4;spacingRight=4;overflow=hidden;rotatable=0;points=[[0,0.5],[1,0.5]];portConstraint=eastwest;rounded=0;shadow=0;html=0;" vertex="1" parent="4bJPrbGNWd6y70NHf2oy-100">
          <mxGeometry y="52" width="160" height="26" as="geometry" />
        </mxCell>
        <mxCell id="4bJPrbGNWd6y70NHf2oy-103" value="-manager: Employee" style="text;align=left;verticalAlign=top;spacingLeft=4;spacingRight=4;overflow=hidden;rotatable=0;points=[[0,0.5],[1,0.5]];portConstraint=eastwest;rounded=0;shadow=0;html=0;" vertex="1" parent="4bJPrbGNWd6y70NHf2oy-100">
          <mxGeometry y="78" width="160" height="26" as="geometry" />
        </mxCell>
        <mxCell id="4bJPrbGNWd6y70NHf2oy-104" value="-budget: Decimal" style="text;align=left;verticalAlign=top;spacingLeft=4;spacingRight=4;overflow=hidden;rotatable=0;points=[[0,0.5],[1,0.5]];portConstraint=eastwest;rounded=0;shadow=0;html=0;" vertex="1" parent="4bJPrbGNWd6y70NHf2oy-100">
          <mxGeometry y="104" width="160" height="26" as="geometry" />
        </mxCell>
        <mxCell id="4bJPrbGNWd6y70NHf2oy-105" value="" style="line;html=1;strokeWidth=1;align=left;verticalAlign=middle;spacingTop=-1;spacingLeft=3;spacingRight=3;rotatable=0;labelPosition=right;points=[];portConstraint=eastwest;" vertex="1" parent="4bJPrbGNWd6y70NHf2oy-100">
          <mxGeometry y="130" width="160" height="8" as="geometry" />
        </mxCell>
        <mxCell id="4bJPrbGNWd6y70NHf2oy-106" value="+manageBudget()" style="text;align=left;verticalAlign=top;spacingLeft=4;spacingRight=4;overflow=hidden;rotatable=0;points=[[0,0.5],[1,0.5]];portConstraint=eastwest;" vertex="1" parent="4bJPrbGNWd6y70NHf2oy-100">
          <mxGeometry y="138" width="160" height="26" as="geometry" />
        </mxCell>
        <mxCell id="4bJPrbGNWd6y70NHf2oy-107" value="+generateReports()" style="text;align=left;verticalAlign=top;spacingLeft=4;spacingRight=4;overflow=hidden;rotatable=0;points=[[0,0.5],[1,0.5]];portConstraint=eastwest;" vertex="1" parent="4bJPrbGNWd6y70NHf2oy-100">
          <mxGeometry y="164" width="160" height="26" as="geometry" />
        </mxCell>
        <mxCell id="4bJPrbGNWd6y70NHf2oy-109" value="SalesTransaction" style="swimlane;fontStyle=0;align=center;verticalAlign=top;childLayout=stackLayout;horizontal=1;startSize=26;horizontalStack=0;resizeParent=1;resizeLast=0;collapsible=1;marginBottom=0;rounded=0;shadow=0;strokeWidth=1;" vertex="1" parent="WIyWlLk6GJQsqaUBKTNV-1">
          <mxGeometry x="633" y="750" width="160" height="252" as="geometry">
            <mxRectangle x="550" y="140" width="160" height="26" as="alternateBounds" />
          </mxGeometry>
        </mxCell>
        <mxCell id="4bJPrbGNWd6y70NHf2oy-110" value="-transactionId: String" style="text;align=left;verticalAlign=top;spacingLeft=4;spacingRight=4;overflow=hidden;rotatable=0;points=[[0,0.5],[1,0.5]];portConstraint=eastwest;" vertex="1" parent="4bJPrbGNWd6y70NHf2oy-109">
          <mxGeometry y="26" width="160" height="26" as="geometry" />
        </mxCell>
        <mxCell id="4bJPrbGNWd6y70NHf2oy-111" value="-date: DateTime" style="text;align=left;verticalAlign=top;spacingLeft=4;spacingRight=4;overflow=hidden;rotatable=0;points=[[0,0.5],[1,0.5]];portConstraint=eastwest;rounded=0;shadow=0;html=0;" vertex="1" parent="4bJPrbGNWd6y70NHf2oy-109">
          <mxGeometry y="52" width="160" height="26" as="geometry" />
        </mxCell>
        <mxCell id="4bJPrbGNWd6y70NHf2oy-112" value="-amount: Decimal" style="text;align=left;verticalAlign=top;spacingLeft=4;spacingRight=4;overflow=hidden;rotatable=0;points=[[0,0.5],[1,0.5]];portConstraint=eastwest;rounded=0;shadow=0;html=0;" vertex="1" parent="4bJPrbGNWd6y70NHf2oy-109">
          <mxGeometry y="78" width="160" height="26" as="geometry" />
        </mxCell>
        <mxCell id="4bJPrbGNWd6y70NHf2oy-113" value="-paymentMethod: String" style="text;align=left;verticalAlign=top;spacingLeft=4;spacingRight=4;overflow=hidden;rotatable=0;points=[[0,0.5],[1,0.5]];portConstraint=eastwest;rounded=0;shadow=0;html=0;" vertex="1" parent="4bJPrbGNWd6y70NHf2oy-109">
          <mxGeometry y="104" width="160" height="26" as="geometry" />
        </mxCell>
        <mxCell id="4bJPrbGNWd6y70NHf2oy-114" value="-Status: String" style="text;align=left;verticalAlign=top;spacingLeft=4;spacingRight=4;overflow=hidden;rotatable=0;points=[[0,0.5],[1,0.5]];portConstraint=eastwest;rounded=0;shadow=0;html=0;" vertex="1" parent="4bJPrbGNWd6y70NHf2oy-109">
          <mxGeometry y="130" width="160" height="26" as="geometry" />
        </mxCell>
        <mxCell id="4bJPrbGNWd6y70NHf2oy-115" value="" style="line;html=1;strokeWidth=1;align=left;verticalAlign=middle;spacingTop=-1;spacingLeft=3;spacingRight=3;rotatable=0;labelPosition=right;points=[];portConstraint=eastwest;" vertex="1" parent="4bJPrbGNWd6y70NHf2oy-109">
          <mxGeometry y="156" width="160" height="8" as="geometry" />
        </mxCell>
        <mxCell id="4bJPrbGNWd6y70NHf2oy-116" value="+processPayment()" style="text;align=left;verticalAlign=top;spacingLeft=4;spacingRight=4;overflow=hidden;rotatable=0;points=[[0,0.5],[1,0.5]];portConstraint=eastwest;" vertex="1" parent="4bJPrbGNWd6y70NHf2oy-109">
          <mxGeometry y="164" width="160" height="26" as="geometry" />
        </mxCell>
        <mxCell id="4bJPrbGNWd6y70NHf2oy-117" value="+generateReceipt()" style="text;align=left;verticalAlign=top;spacingLeft=4;spacingRight=4;overflow=hidden;rotatable=0;points=[[0,0.5],[1,0.5]];portConstraint=eastwest;" vertex="1" parent="4bJPrbGNWd6y70NHf2oy-109">
          <mxGeometry y="190" width="160" height="26" as="geometry" />
        </mxCell>
        <mxCell id="4bJPrbGNWd6y70NHf2oy-118" value="+calculateTax()" style="text;align=left;verticalAlign=top;spacingLeft=4;spacingRight=4;overflow=hidden;rotatable=0;points=[[0,0.5],[1,0.5]];portConstraint=eastwest;" vertex="1" parent="4bJPrbGNWd6y70NHf2oy-109">
          <mxGeometry y="216" width="160" height="26" as="geometry" />
        </mxCell>
        <mxCell id="4bJPrbGNWd6y70NHf2oy-122" value="" style="endArrow=none;html=1;rounded=0;entryX=0.75;entryY=0;entryDx=0;entryDy=0;exitX=0;exitY=0.231;exitDx=0;exitDy=0;exitPerimeter=0;" edge="1" parent="WIyWlLk6GJQsqaUBKTNV-1" source="zkfFHV4jXpPFQw0GAbJ--19" target="4bJPrbGNWd6y70NHf2oy-24">
          <mxGeometry width="50" height="50" relative="1" as="geometry">
            <mxPoint x="593" y="390" as="sourcePoint" />
            <mxPoint x="482" y="531" as="targetPoint" />
            <Array as="points">
              <mxPoint x="324" y="320" />
            </Array>
          </mxGeometry>
        </mxCell>
        <mxCell id="4bJPrbGNWd6y70NHf2oy-123" value="1" style="edgeLabel;html=1;align=center;verticalAlign=middle;resizable=0;points=[];" vertex="1" connectable="0" parent="4bJPrbGNWd6y70NHf2oy-122">
          <mxGeometry x="-0.6814" y="3" relative="1" as="geometry">
            <mxPoint x="67" y="-14" as="offset" />
          </mxGeometry>
        </mxCell>
        <mxCell id="4bJPrbGNWd6y70NHf2oy-124" value="1" style="edgeLabel;html=1;align=center;verticalAlign=middle;resizable=0;points=[];" vertex="1" connectable="0" parent="4bJPrbGNWd6y70NHf2oy-122">
          <mxGeometry x="0.7254" relative="1" as="geometry">
            <mxPoint x="6" y="57" as="offset" />
          </mxGeometry>
        </mxCell>
        <mxCell id="4bJPrbGNWd6y70NHf2oy-125" value="" style="endArrow=none;html=1;rounded=0;exitX=0.25;exitY=1;exitDx=0;exitDy=0;entryX=0.5;entryY=0;entryDx=0;entryDy=0;" edge="1" parent="WIyWlLk6GJQsqaUBKTNV-1" source="4bJPrbGNWd6y70NHf2oy-42" target="4bJPrbGNWd6y70NHf2oy-100">
          <mxGeometry width="50" height="50" relative="1" as="geometry">
            <mxPoint x="533" y="740" as="sourcePoint" />
            <mxPoint x="583" y="690" as="targetPoint" />
            <Array as="points">
              <mxPoint x="432" y="800" />
              <mxPoint x="309" y="800" />
            </Array>
          </mxGeometry>
        </mxCell>
        <mxCell id="4bJPrbGNWd6y70NHf2oy-227" value="*" style="edgeLabel;html=1;align=center;verticalAlign=middle;resizable=0;points=[];" vertex="1" connectable="0" parent="4bJPrbGNWd6y70NHf2oy-125">
          <mxGeometry x="-0.8659" y="-1" relative="1" as="geometry">
            <mxPoint as="offset" />
          </mxGeometry>
        </mxCell>
        <mxCell id="4bJPrbGNWd6y70NHf2oy-228" value="1" style="edgeLabel;html=1;align=center;verticalAlign=middle;resizable=0;points=[];" vertex="1" connectable="0" parent="4bJPrbGNWd6y70NHf2oy-125">
          <mxGeometry x="0.8871" y="2" relative="1" as="geometry">
            <mxPoint as="offset" />
          </mxGeometry>
        </mxCell>
        <mxCell id="4bJPrbGNWd6y70NHf2oy-126" value="" style="endArrow=none;html=1;rounded=0;entryX=0.75;entryY=1;entryDx=0;entryDy=0;exitX=0.75;exitY=0;exitDx=0;exitDy=0;" edge="1" parent="WIyWlLk6GJQsqaUBKTNV-1" source="4bJPrbGNWd6y70NHf2oy-91" target="4bJPrbGNWd6y70NHf2oy-42">
          <mxGeometry width="50" height="50" relative="1" as="geometry">
            <mxPoint x="257" y="540" as="sourcePoint" />
            <mxPoint x="257" y="486" as="targetPoint" />
          </mxGeometry>
        </mxCell>
        <mxCell id="4bJPrbGNWd6y70NHf2oy-127" value="1" style="edgeLabel;html=1;align=center;verticalAlign=middle;resizable=0;points=[];" vertex="1" connectable="0" parent="4bJPrbGNWd6y70NHf2oy-126">
          <mxGeometry x="0.4818" relative="1" as="geometry">
            <mxPoint x="10" as="offset" />
          </mxGeometry>
        </mxCell>
        <mxCell id="4bJPrbGNWd6y70NHf2oy-128" value="*" style="edgeLabel;html=1;align=center;verticalAlign=middle;resizable=0;points=[];" vertex="1" connectable="0" parent="4bJPrbGNWd6y70NHf2oy-126">
          <mxGeometry x="-0.5182" y="-1" relative="1" as="geometry">
            <mxPoint x="9" as="offset" />
          </mxGeometry>
        </mxCell>
        <mxCell id="4bJPrbGNWd6y70NHf2oy-130" value="" style="endArrow=classic;html=1;rounded=0;entryX=0.5;entryY=1;entryDx=0;entryDy=0;exitX=1;exitY=0.5;exitDx=0;exitDy=0;" edge="1" parent="WIyWlLk6GJQsqaUBKTNV-1" source="4bJPrbGNWd6y70NHf2oy-111" target="4bJPrbGNWd6y70NHf2oy-60">
          <mxGeometry width="50" height="50" relative="1" as="geometry">
            <mxPoint x="873" y="830" as="sourcePoint" />
            <mxPoint x="583" y="670" as="targetPoint" />
            <Array as="points">
              <mxPoint x="813" y="815" />
            </Array>
          </mxGeometry>
        </mxCell>
        <mxCell id="4bJPrbGNWd6y70NHf2oy-132" value="" style="endArrow=none;html=1;rounded=0;entryX=1;entryY=0.5;entryDx=0;entryDy=0;exitX=1;exitY=0.5;exitDx=0;exitDy=0;" edge="1" parent="WIyWlLk6GJQsqaUBKTNV-1" source="4bJPrbGNWd6y70NHf2oy-113" target="zkfFHV4jXpPFQw0GAbJ--19">
          <mxGeometry width="50" height="50" relative="1" as="geometry">
            <mxPoint x="533" y="620" as="sourcePoint" />
            <mxPoint x="583" y="570" as="targetPoint" />
            <Array as="points">
              <mxPoint x="923" y="867" />
              <mxPoint x="923" y="327" />
            </Array>
          </mxGeometry>
        </mxCell>
        <mxCell id="4bJPrbGNWd6y70NHf2oy-133" value="1" style="edgeLabel;html=1;align=center;verticalAlign=middle;resizable=0;points=[];" vertex="1" connectable="0" parent="4bJPrbGNWd6y70NHf2oy-132">
          <mxGeometry x="0.9692" relative="1" as="geometry">
            <mxPoint y="-13" as="offset" />
          </mxGeometry>
        </mxCell>
        <mxCell id="4bJPrbGNWd6y70NHf2oy-134" value="*" style="edgeLabel;html=1;align=center;verticalAlign=middle;resizable=0;points=[];" vertex="1" connectable="0" parent="4bJPrbGNWd6y70NHf2oy-132">
          <mxGeometry x="-0.9667" relative="1" as="geometry">
            <mxPoint y="13" as="offset" />
          </mxGeometry>
        </mxCell>
        <mxCell id="4bJPrbGNWd6y70NHf2oy-135" value="SalesLineItem" style="swimlane;fontStyle=0;align=center;verticalAlign=top;childLayout=stackLayout;horizontal=1;startSize=26;horizontalStack=0;resizeParent=1;resizeLast=0;collapsible=1;marginBottom=0;rounded=0;shadow=0;strokeWidth=1;" vertex="1" parent="WIyWlLk6GJQsqaUBKTNV-1">
          <mxGeometry x="233" y="1075" width="160" height="147" as="geometry">
            <mxRectangle x="550" y="140" width="160" height="26" as="alternateBounds" />
          </mxGeometry>
        </mxCell>
        <mxCell id="4bJPrbGNWd6y70NHf2oy-136" value="-quantity: Integer" style="text;align=left;verticalAlign=top;spacingLeft=4;spacingRight=4;overflow=hidden;rotatable=0;points=[[0,0.5],[1,0.5]];portConstraint=eastwest;" vertex="1" parent="4bJPrbGNWd6y70NHf2oy-135">
          <mxGeometry y="26" width="160" height="26" as="geometry" />
        </mxCell>
        <mxCell id="4bJPrbGNWd6y70NHf2oy-137" value="-unitPrice: Decimal" style="text;align=left;verticalAlign=top;spacingLeft=4;spacingRight=4;overflow=hidden;rotatable=0;points=[[0,0.5],[1,0.5]];portConstraint=eastwest;rounded=0;shadow=0;html=0;" vertex="1" parent="4bJPrbGNWd6y70NHf2oy-135">
          <mxGeometry y="52" width="160" height="26" as="geometry" />
        </mxCell>
        <mxCell id="4bJPrbGNWd6y70NHf2oy-138" value="-discount: Decimal" style="text;align=left;verticalAlign=top;spacingLeft=4;spacingRight=4;overflow=hidden;rotatable=0;points=[[0,0.5],[1,0.5]];portConstraint=eastwest;rounded=0;shadow=0;html=0;" vertex="1" parent="4bJPrbGNWd6y70NHf2oy-135">
          <mxGeometry y="78" width="160" height="26" as="geometry" />
        </mxCell>
        <mxCell id="4bJPrbGNWd6y70NHf2oy-140" value="" style="line;html=1;strokeWidth=1;align=left;verticalAlign=middle;spacingTop=-1;spacingLeft=3;spacingRight=3;rotatable=0;labelPosition=right;points=[];portConstraint=eastwest;" vertex="1" parent="4bJPrbGNWd6y70NHf2oy-135">
          <mxGeometry y="104" width="160" height="8" as="geometry" />
        </mxCell>
        <mxCell id="4bJPrbGNWd6y70NHf2oy-141" value="+calculateSubtotal()" style="text;align=left;verticalAlign=top;spacingLeft=4;spacingRight=4;overflow=hidden;rotatable=0;points=[[0,0.5],[1,0.5]];portConstraint=eastwest;" vertex="1" parent="4bJPrbGNWd6y70NHf2oy-135">
          <mxGeometry y="112" width="160" height="26" as="geometry" />
        </mxCell>
        <mxCell id="4bJPrbGNWd6y70NHf2oy-144" value="Budget" style="swimlane;fontStyle=0;align=center;verticalAlign=top;childLayout=stackLayout;horizontal=1;startSize=26;horizontalStack=0;resizeParent=1;resizeLast=0;collapsible=1;marginBottom=0;rounded=0;shadow=0;strokeWidth=1;" vertex="1" parent="WIyWlLk6GJQsqaUBKTNV-1">
          <mxGeometry x="443" y="1070" width="160" height="216" as="geometry">
            <mxRectangle x="550" y="140" width="160" height="26" as="alternateBounds" />
          </mxGeometry>
        </mxCell>
        <mxCell id="4bJPrbGNWd6y70NHf2oy-145" value="-budgetId: String" style="text;align=left;verticalAlign=top;spacingLeft=4;spacingRight=4;overflow=hidden;rotatable=0;points=[[0,0.5],[1,0.5]];portConstraint=eastwest;" vertex="1" parent="4bJPrbGNWd6y70NHf2oy-144">
          <mxGeometry y="26" width="160" height="26" as="geometry" />
        </mxCell>
        <mxCell id="4bJPrbGNWd6y70NHf2oy-146" value="-department: Department" style="text;align=left;verticalAlign=top;spacingLeft=4;spacingRight=4;overflow=hidden;rotatable=0;points=[[0,0.5],[1,0.5]];portConstraint=eastwest;rounded=0;shadow=0;html=0;" vertex="1" parent="4bJPrbGNWd6y70NHf2oy-144">
          <mxGeometry y="52" width="160" height="26" as="geometry" />
        </mxCell>
        <mxCell id="4bJPrbGNWd6y70NHf2oy-147" value="-amount: Decimal" style="text;align=left;verticalAlign=top;spacingLeft=4;spacingRight=4;overflow=hidden;rotatable=0;points=[[0,0.5],[1,0.5]];portConstraint=eastwest;rounded=0;shadow=0;html=0;" vertex="1" parent="4bJPrbGNWd6y70NHf2oy-144">
          <mxGeometry y="78" width="160" height="26" as="geometry" />
        </mxCell>
        <mxCell id="4bJPrbGNWd6y70NHf2oy-148" value="-period: String" style="text;align=left;verticalAlign=top;spacingLeft=4;spacingRight=4;overflow=hidden;rotatable=0;points=[[0,0.5],[1,0.5]];portConstraint=eastwest;rounded=0;shadow=0;html=0;" vertex="1" parent="4bJPrbGNWd6y70NHf2oy-144">
          <mxGeometry y="104" width="160" height="26" as="geometry" />
        </mxCell>
        <mxCell id="4bJPrbGNWd6y70NHf2oy-149" value="" style="line;html=1;strokeWidth=1;align=left;verticalAlign=middle;spacingTop=-1;spacingLeft=3;spacingRight=3;rotatable=0;labelPosition=right;points=[];portConstraint=eastwest;" vertex="1" parent="4bJPrbGNWd6y70NHf2oy-144">
          <mxGeometry y="130" width="160" height="8" as="geometry" />
        </mxCell>
        <mxCell id="4bJPrbGNWd6y70NHf2oy-150" value="+allocateFunds()" style="text;align=left;verticalAlign=top;spacingLeft=4;spacingRight=4;overflow=hidden;rotatable=0;points=[[0,0.5],[1,0.5]];portConstraint=eastwest;" vertex="1" parent="4bJPrbGNWd6y70NHf2oy-144">
          <mxGeometry y="138" width="160" height="26" as="geometry" />
        </mxCell>
        <mxCell id="4bJPrbGNWd6y70NHf2oy-151" value="+trackSpending()" style="text;align=left;verticalAlign=top;spacingLeft=4;spacingRight=4;overflow=hidden;rotatable=0;points=[[0,0.5],[1,0.5]];portConstraint=eastwest;" vertex="1" parent="4bJPrbGNWd6y70NHf2oy-144">
          <mxGeometry y="164" width="160" height="26" as="geometry" />
        </mxCell>
        <mxCell id="4bJPrbGNWd6y70NHf2oy-152" value="+generateReports()" style="text;align=left;verticalAlign=top;spacingLeft=4;spacingRight=4;overflow=hidden;rotatable=0;points=[[0,0.5],[1,0.5]];portConstraint=eastwest;" vertex="1" parent="WIyWlLk6GJQsqaUBKTNV-1">
          <mxGeometry x="443" y="1258" width="160" height="26" as="geometry" />
        </mxCell>
        <mxCell id="4bJPrbGNWd6y70NHf2oy-153" value="Product" style="swimlane;fontStyle=0;align=center;verticalAlign=top;childLayout=stackLayout;horizontal=1;startSize=26;horizontalStack=0;resizeParent=1;resizeLast=0;collapsible=1;marginBottom=0;rounded=0;shadow=0;strokeWidth=1;" vertex="1" parent="WIyWlLk6GJQsqaUBKTNV-1">
          <mxGeometry x="53" y="820" width="160" height="252" as="geometry">
            <mxRectangle x="550" y="140" width="160" height="26" as="alternateBounds" />
          </mxGeometry>
        </mxCell>
        <mxCell id="4bJPrbGNWd6y70NHf2oy-154" value="-productId: String" style="text;align=left;verticalAlign=top;spacingLeft=4;spacingRight=4;overflow=hidden;rotatable=0;points=[[0,0.5],[1,0.5]];portConstraint=eastwest;" vertex="1" parent="4bJPrbGNWd6y70NHf2oy-153">
          <mxGeometry y="26" width="160" height="26" as="geometry" />
        </mxCell>
        <mxCell id="4bJPrbGNWd6y70NHf2oy-155" value="-name: String" style="text;align=left;verticalAlign=top;spacingLeft=4;spacingRight=4;overflow=hidden;rotatable=0;points=[[0,0.5],[1,0.5]];portConstraint=eastwest;rounded=0;shadow=0;html=0;" vertex="1" parent="4bJPrbGNWd6y70NHf2oy-153">
          <mxGeometry y="52" width="160" height="26" as="geometry" />
        </mxCell>
        <mxCell id="4bJPrbGNWd6y70NHf2oy-156" value="-category: String" style="text;align=left;verticalAlign=top;spacingLeft=4;spacingRight=4;overflow=hidden;rotatable=0;points=[[0,0.5],[1,0.5]];portConstraint=eastwest;rounded=0;shadow=0;html=0;" vertex="1" parent="4bJPrbGNWd6y70NHf2oy-153">
          <mxGeometry y="78" width="160" height="26" as="geometry" />
        </mxCell>
        <mxCell id="4bJPrbGNWd6y70NHf2oy-157" value="-price: Decimal" style="text;align=left;verticalAlign=top;spacingLeft=4;spacingRight=4;overflow=hidden;rotatable=0;points=[[0,0.5],[1,0.5]];portConstraint=eastwest;rounded=0;shadow=0;html=0;" vertex="1" parent="4bJPrbGNWd6y70NHf2oy-153">
          <mxGeometry y="104" width="160" height="26" as="geometry" />
        </mxCell>
        <mxCell id="4bJPrbGNWd6y70NHf2oy-158" value="-supplier: Supplier" style="text;align=left;verticalAlign=top;spacingLeft=4;spacingRight=4;overflow=hidden;rotatable=0;points=[[0,0.5],[1,0.5]];portConstraint=eastwest;rounded=0;shadow=0;html=0;" vertex="1" parent="4bJPrbGNWd6y70NHf2oy-153">
          <mxGeometry y="130" width="160" height="26" as="geometry" />
        </mxCell>
        <mxCell id="4bJPrbGNWd6y70NHf2oy-159" value="" style="line;html=1;strokeWidth=1;align=left;verticalAlign=middle;spacingTop=-1;spacingLeft=3;spacingRight=3;rotatable=0;labelPosition=right;points=[];portConstraint=eastwest;" vertex="1" parent="4bJPrbGNWd6y70NHf2oy-153">
          <mxGeometry y="156" width="160" height="8" as="geometry" />
        </mxCell>
        <mxCell id="4bJPrbGNWd6y70NHf2oy-160" value="+updatePrice()" style="text;align=left;verticalAlign=top;spacingLeft=4;spacingRight=4;overflow=hidden;rotatable=0;points=[[0,0.5],[1,0.5]];portConstraint=eastwest;" vertex="1" parent="4bJPrbGNWd6y70NHf2oy-153">
          <mxGeometry y="164" width="160" height="26" as="geometry" />
        </mxCell>
        <mxCell id="4bJPrbGNWd6y70NHf2oy-161" value="+checkStock()" style="text;align=left;verticalAlign=top;spacingLeft=4;spacingRight=4;overflow=hidden;rotatable=0;points=[[0,0.5],[1,0.5]];portConstraint=eastwest;" vertex="1" parent="4bJPrbGNWd6y70NHf2oy-153">
          <mxGeometry y="190" width="160" height="26" as="geometry" />
        </mxCell>
        <mxCell id="4bJPrbGNWd6y70NHf2oy-162" value="+getSupplierInfo()" style="text;align=left;verticalAlign=top;spacingLeft=4;spacingRight=4;overflow=hidden;rotatable=0;points=[[0,0.5],[1,0.5]];portConstraint=eastwest;" vertex="1" parent="4bJPrbGNWd6y70NHf2oy-153">
          <mxGeometry y="216" width="160" height="26" as="geometry" />
        </mxCell>
        <mxCell id="4bJPrbGNWd6y70NHf2oy-168" value="" style="endArrow=none;html=1;rounded=0;entryX=0.244;entryY=1;entryDx=0;entryDy=0;entryPerimeter=0;exitX=0.75;exitY=0;exitDx=0;exitDy=0;" edge="1" parent="WIyWlLk6GJQsqaUBKTNV-1" source="4bJPrbGNWd6y70NHf2oy-153" target="4bJPrbGNWd6y70NHf2oy-69">
          <mxGeometry width="50" height="50" relative="1" as="geometry">
            <mxPoint x="133" y="810" as="sourcePoint" />
            <mxPoint x="583" y="800" as="targetPoint" />
            <Array as="points">
              <mxPoint x="173" y="800" />
              <mxPoint x="233" y="800" />
            </Array>
          </mxGeometry>
        </mxCell>
        <mxCell id="4bJPrbGNWd6y70NHf2oy-177" value="*" style="edgeLabel;html=1;align=center;verticalAlign=middle;resizable=0;points=[];" vertex="1" connectable="0" parent="4bJPrbGNWd6y70NHf2oy-168">
          <mxGeometry x="0.8328" y="-2" relative="1" as="geometry">
            <mxPoint as="offset" />
          </mxGeometry>
        </mxCell>
        <mxCell id="4bJPrbGNWd6y70NHf2oy-178" value="*" style="edgeLabel;html=1;align=center;verticalAlign=middle;resizable=0;points=[];" vertex="1" connectable="0" parent="4bJPrbGNWd6y70NHf2oy-168">
          <mxGeometry x="-0.7855" relative="1" as="geometry">
            <mxPoint as="offset" />
          </mxGeometry>
        </mxCell>
        <mxCell id="4bJPrbGNWd6y70NHf2oy-169" value="" style="endArrow=none;html=1;rounded=0;exitX=0.75;exitY=1;exitDx=0;exitDy=0;entryX=0;entryY=0.5;entryDx=0;entryDy=0;" edge="1" parent="WIyWlLk6GJQsqaUBKTNV-1" source="4bJPrbGNWd6y70NHf2oy-153" target="4bJPrbGNWd6y70NHf2oy-137">
          <mxGeometry width="50" height="50" relative="1" as="geometry">
            <mxPoint x="533" y="1010" as="sourcePoint" />
            <mxPoint x="583" y="960" as="targetPoint" />
            <Array as="points">
              <mxPoint x="173" y="1140" />
            </Array>
          </mxGeometry>
        </mxCell>
        <mxCell id="4bJPrbGNWd6y70NHf2oy-174" value="1" style="edgeLabel;html=1;align=center;verticalAlign=middle;resizable=0;points=[];" vertex="1" connectable="0" parent="4bJPrbGNWd6y70NHf2oy-169">
          <mxGeometry x="-0.8094" y="-1" relative="1" as="geometry">
            <mxPoint as="offset" />
          </mxGeometry>
        </mxCell>
        <mxCell id="4bJPrbGNWd6y70NHf2oy-176" value="*" style="edgeLabel;html=1;align=center;verticalAlign=middle;resizable=0;points=[];" vertex="1" connectable="0" parent="4bJPrbGNWd6y70NHf2oy-169">
          <mxGeometry x="0.7781" y="-1" relative="1" as="geometry">
            <mxPoint as="offset" />
          </mxGeometry>
        </mxCell>
        <mxCell id="4bJPrbGNWd6y70NHf2oy-170" value="" style="endArrow=none;html=1;rounded=0;entryX=0.25;entryY=1;entryDx=0;entryDy=0;exitX=0.5;exitY=0;exitDx=0;exitDy=0;" edge="1" parent="WIyWlLk6GJQsqaUBKTNV-1" source="4bJPrbGNWd6y70NHf2oy-135" target="4bJPrbGNWd6y70NHf2oy-109">
          <mxGeometry width="50" height="50" relative="1" as="geometry">
            <mxPoint x="533" y="1010" as="sourcePoint" />
            <mxPoint x="583" y="960" as="targetPoint" />
            <Array as="points">
              <mxPoint x="313" y="1030" />
              <mxPoint x="673" y="1030" />
            </Array>
          </mxGeometry>
        </mxCell>
        <mxCell id="4bJPrbGNWd6y70NHf2oy-179" value="*" style="edgeLabel;html=1;align=center;verticalAlign=middle;resizable=0;points=[];" vertex="1" connectable="0" parent="4bJPrbGNWd6y70NHf2oy-170">
          <mxGeometry x="-0.9363" relative="1" as="geometry">
            <mxPoint as="offset" />
          </mxGeometry>
        </mxCell>
        <mxCell id="4bJPrbGNWd6y70NHf2oy-180" value="1" style="edgeLabel;html=1;align=center;verticalAlign=middle;resizable=0;points=[];" vertex="1" connectable="0" parent="4bJPrbGNWd6y70NHf2oy-170">
          <mxGeometry x="0.9344" relative="1" as="geometry">
            <mxPoint as="offset" />
          </mxGeometry>
        </mxCell>
        <mxCell id="4bJPrbGNWd6y70NHf2oy-171" value="" style="endArrow=none;html=1;rounded=0;exitX=1;exitY=0.5;exitDx=0;exitDy=0;entryX=0.25;entryY=0;entryDx=0;entryDy=0;" edge="1" parent="WIyWlLk6GJQsqaUBKTNV-1" source="4bJPrbGNWd6y70NHf2oy-107" target="4bJPrbGNWd6y70NHf2oy-144">
          <mxGeometry width="50" height="50" relative="1" as="geometry">
            <mxPoint x="533" y="1110" as="sourcePoint" />
            <mxPoint x="583" y="1060" as="targetPoint" />
            <Array as="points">
              <mxPoint x="403" y="997" />
              <mxPoint x="403" y="1050" />
              <mxPoint x="483" y="1050" />
            </Array>
          </mxGeometry>
        </mxCell>
        <mxCell id="4bJPrbGNWd6y70NHf2oy-172" value="1" style="edgeLabel;html=1;align=center;verticalAlign=middle;resizable=0;points=[];" vertex="1" connectable="0" parent="4bJPrbGNWd6y70NHf2oy-171">
          <mxGeometry x="-0.9305" relative="1" as="geometry">
            <mxPoint as="offset" />
          </mxGeometry>
        </mxCell>
        <mxCell id="4bJPrbGNWd6y70NHf2oy-173" value="1" style="edgeLabel;html=1;align=center;verticalAlign=middle;resizable=0;points=[];" vertex="1" connectable="0" parent="4bJPrbGNWd6y70NHf2oy-171">
          <mxGeometry x="0.9066" y="3" relative="1" as="geometry">
            <mxPoint as="offset" />
          </mxGeometry>
        </mxCell>
        <mxCell id="4bJPrbGNWd6y70NHf2oy-181" value="Contract" style="swimlane;fontStyle=0;align=center;verticalAlign=top;childLayout=stackLayout;horizontal=1;startSize=26;horizontalStack=0;resizeParent=1;resizeLast=0;collapsible=1;marginBottom=0;rounded=0;shadow=0;strokeWidth=1;" vertex="1" parent="WIyWlLk6GJQsqaUBKTNV-1">
          <mxGeometry x="263" y="1250" width="174" height="197.43" as="geometry">
            <mxRectangle x="550" y="140" width="160" height="26" as="alternateBounds" />
          </mxGeometry>
        </mxCell>
        <mxCell id="4bJPrbGNWd6y70NHf2oy-182" value="-contractId: String" style="text;align=left;verticalAlign=top;spacingLeft=4;spacingRight=4;overflow=hidden;rotatable=0;points=[[0,0.5],[1,0.5]];portConstraint=eastwest;" vertex="1" parent="4bJPrbGNWd6y70NHf2oy-181">
          <mxGeometry y="26" width="174" height="26" as="geometry" />
        </mxCell>
        <mxCell id="4bJPrbGNWd6y70NHf2oy-183" value="-terms: String" style="text;align=left;verticalAlign=top;spacingLeft=4;spacingRight=4;overflow=hidden;rotatable=0;points=[[0,0.5],[1,0.5]];portConstraint=eastwest;rounded=0;shadow=0;html=0;" vertex="1" parent="4bJPrbGNWd6y70NHf2oy-181">
          <mxGeometry y="52" width="174" height="26" as="geometry" />
        </mxCell>
        <mxCell id="4bJPrbGNWd6y70NHf2oy-184" value="-startDate: DateTime" style="text;align=left;verticalAlign=top;spacingLeft=4;spacingRight=4;overflow=hidden;rotatable=0;points=[[0,0.5],[1,0.5]];portConstraint=eastwest;rounded=0;shadow=0;html=0;" vertex="1" parent="4bJPrbGNWd6y70NHf2oy-181">
          <mxGeometry y="78" width="174" height="26" as="geometry" />
        </mxCell>
        <mxCell id="4bJPrbGNWd6y70NHf2oy-185" value="-endDate: DateTime" style="text;align=left;verticalAlign=top;spacingLeft=4;spacingRight=4;overflow=hidden;rotatable=0;points=[[0,0.5],[1,0.5]];portConstraint=eastwest;rounded=0;shadow=0;html=0;" vertex="1" parent="4bJPrbGNWd6y70NHf2oy-181">
          <mxGeometry y="104" width="174" height="26" as="geometry" />
        </mxCell>
        <mxCell id="4bJPrbGNWd6y70NHf2oy-186" value="" style="line;html=1;strokeWidth=1;align=left;verticalAlign=middle;spacingTop=-1;spacingLeft=3;spacingRight=3;rotatable=0;labelPosition=right;points=[];portConstraint=eastwest;" vertex="1" parent="4bJPrbGNWd6y70NHf2oy-181">
          <mxGeometry y="130" width="174" height="8" as="geometry" />
        </mxCell>
        <mxCell id="4bJPrbGNWd6y70NHf2oy-187" value="+renewContract()" style="text;align=left;verticalAlign=top;spacingLeft=4;spacingRight=4;overflow=hidden;rotatable=0;points=[[0,0.5],[1,0.5]];portConstraint=eastwest;" vertex="1" parent="4bJPrbGNWd6y70NHf2oy-181">
          <mxGeometry y="138" width="174" height="26" as="geometry" />
        </mxCell>
        <mxCell id="4bJPrbGNWd6y70NHf2oy-188" value="+updateTerms()" style="text;align=left;verticalAlign=top;spacingLeft=4;spacingRight=4;overflow=hidden;rotatable=0;points=[[0,0.5],[1,0.5]];portConstraint=eastwest;" vertex="1" parent="4bJPrbGNWd6y70NHf2oy-181">
          <mxGeometry y="164" width="174" height="26" as="geometry" />
        </mxCell>
        <mxCell id="4bJPrbGNWd6y70NHf2oy-190" value="Supplier" style="swimlane;fontStyle=0;align=center;verticalAlign=top;childLayout=stackLayout;horizontal=1;startSize=26;horizontalStack=0;resizeParent=1;resizeLast=0;collapsible=1;marginBottom=0;rounded=0;shadow=0;strokeWidth=1;" vertex="1" parent="WIyWlLk6GJQsqaUBKTNV-1">
          <mxGeometry x="53" y="1150" width="160" height="197.43" as="geometry">
            <mxRectangle x="550" y="140" width="160" height="26" as="alternateBounds" />
          </mxGeometry>
        </mxCell>
        <mxCell id="4bJPrbGNWd6y70NHf2oy-191" value="-suppierId: String" style="text;align=left;verticalAlign=top;spacingLeft=4;spacingRight=4;overflow=hidden;rotatable=0;points=[[0,0.5],[1,0.5]];portConstraint=eastwest;" vertex="1" parent="4bJPrbGNWd6y70NHf2oy-190">
          <mxGeometry y="26" width="160" height="26" as="geometry" />
        </mxCell>
        <mxCell id="4bJPrbGNWd6y70NHf2oy-192" value="-name: String" style="text;align=left;verticalAlign=top;spacingLeft=4;spacingRight=4;overflow=hidden;rotatable=0;points=[[0,0.5],[1,0.5]];portConstraint=eastwest;rounded=0;shadow=0;html=0;" vertex="1" parent="4bJPrbGNWd6y70NHf2oy-190">
          <mxGeometry y="52" width="160" height="26" as="geometry" />
        </mxCell>
        <mxCell id="4bJPrbGNWd6y70NHf2oy-193" value="-contactInfor: String" style="text;align=left;verticalAlign=top;spacingLeft=4;spacingRight=4;overflow=hidden;rotatable=0;points=[[0,0.5],[1,0.5]];portConstraint=eastwest;rounded=0;shadow=0;html=0;" vertex="1" parent="4bJPrbGNWd6y70NHf2oy-190">
          <mxGeometry y="78" width="160" height="26" as="geometry" />
        </mxCell>
        <mxCell id="4bJPrbGNWd6y70NHf2oy-194" value="-rating: String" style="text;align=left;verticalAlign=top;spacingLeft=4;spacingRight=4;overflow=hidden;rotatable=0;points=[[0,0.5],[1,0.5]];portConstraint=eastwest;rounded=0;shadow=0;html=0;" vertex="1" parent="4bJPrbGNWd6y70NHf2oy-190">
          <mxGeometry y="104" width="160" height="26" as="geometry" />
        </mxCell>
        <mxCell id="4bJPrbGNWd6y70NHf2oy-195" value="" style="line;html=1;strokeWidth=1;align=left;verticalAlign=middle;spacingTop=-1;spacingLeft=3;spacingRight=3;rotatable=0;labelPosition=right;points=[];portConstraint=eastwest;" vertex="1" parent="4bJPrbGNWd6y70NHf2oy-190">
          <mxGeometry y="130" width="160" height="8" as="geometry" />
        </mxCell>
        <mxCell id="4bJPrbGNWd6y70NHf2oy-196" value="+evaluatePerformance()" style="text;align=left;verticalAlign=top;spacingLeft=4;spacingRight=4;overflow=hidden;rotatable=0;points=[[0,0.5],[1,0.5]];portConstraint=eastwest;" vertex="1" parent="4bJPrbGNWd6y70NHf2oy-190">
          <mxGeometry y="138" width="160" height="26" as="geometry" />
        </mxCell>
        <mxCell id="4bJPrbGNWd6y70NHf2oy-197" value="+updateContract()" style="text;align=left;verticalAlign=top;spacingLeft=4;spacingRight=4;overflow=hidden;rotatable=0;points=[[0,0.5],[1,0.5]];portConstraint=eastwest;" vertex="1" parent="4bJPrbGNWd6y70NHf2oy-190">
          <mxGeometry y="164" width="160" height="26" as="geometry" />
        </mxCell>
        <mxCell id="4bJPrbGNWd6y70NHf2oy-199" value="PurchaseOrder" style="swimlane;fontStyle=0;align=center;verticalAlign=top;childLayout=stackLayout;horizontal=1;startSize=26;horizontalStack=0;resizeParent=1;resizeLast=0;collapsible=1;marginBottom=0;rounded=0;shadow=0;strokeWidth=1;" vertex="1" parent="WIyWlLk6GJQsqaUBKTNV-1">
          <mxGeometry x="683" y="1030.0000000000002" width="160" height="252" as="geometry">
            <mxRectangle x="550" y="140" width="160" height="26" as="alternateBounds" />
          </mxGeometry>
        </mxCell>
        <mxCell id="4bJPrbGNWd6y70NHf2oy-200" value="-orderId: String" style="text;align=left;verticalAlign=top;spacingLeft=4;spacingRight=4;overflow=hidden;rotatable=0;points=[[0,0.5],[1,0.5]];portConstraint=eastwest;" vertex="1" parent="4bJPrbGNWd6y70NHf2oy-199">
          <mxGeometry y="26" width="160" height="26" as="geometry" />
        </mxCell>
        <mxCell id="4bJPrbGNWd6y70NHf2oy-201" value="-supplier: String" style="text;align=left;verticalAlign=top;spacingLeft=4;spacingRight=4;overflow=hidden;rotatable=0;points=[[0,0.5],[1,0.5]];portConstraint=eastwest;rounded=0;shadow=0;html=0;" vertex="1" parent="4bJPrbGNWd6y70NHf2oy-199">
          <mxGeometry y="52" width="160" height="26" as="geometry" />
        </mxCell>
        <mxCell id="4bJPrbGNWd6y70NHf2oy-202" value="-orderDate: DateTime" style="text;align=left;verticalAlign=top;spacingLeft=4;spacingRight=4;overflow=hidden;rotatable=0;points=[[0,0.5],[1,0.5]];portConstraint=eastwest;rounded=0;shadow=0;html=0;" vertex="1" parent="4bJPrbGNWd6y70NHf2oy-199">
          <mxGeometry y="78" width="160" height="26" as="geometry" />
        </mxCell>
        <mxCell id="4bJPrbGNWd6y70NHf2oy-203" value="-status: String" style="text;align=left;verticalAlign=top;spacingLeft=4;spacingRight=4;overflow=hidden;rotatable=0;points=[[0,0.5],[1,0.5]];portConstraint=eastwest;rounded=0;shadow=0;html=0;" vertex="1" parent="4bJPrbGNWd6y70NHf2oy-199">
          <mxGeometry y="104" width="160" height="26" as="geometry" />
        </mxCell>
        <mxCell id="4bJPrbGNWd6y70NHf2oy-205" value="" style="line;html=1;strokeWidth=1;align=left;verticalAlign=middle;spacingTop=-1;spacingLeft=3;spacingRight=3;rotatable=0;labelPosition=right;points=[];portConstraint=eastwest;" vertex="1" parent="4bJPrbGNWd6y70NHf2oy-199">
          <mxGeometry y="130" width="160" height="8" as="geometry" />
        </mxCell>
        <mxCell id="4bJPrbGNWd6y70NHf2oy-206" value="+createOrder()" style="text;align=left;verticalAlign=top;spacingLeft=4;spacingRight=4;overflow=hidden;rotatable=0;points=[[0,0.5],[1,0.5]];portConstraint=eastwest;" vertex="1" parent="4bJPrbGNWd6y70NHf2oy-199">
          <mxGeometry y="138" width="160" height="26" as="geometry" />
        </mxCell>
        <mxCell id="4bJPrbGNWd6y70NHf2oy-207" value="+approveOrder()" style="text;align=left;verticalAlign=top;spacingLeft=4;spacingRight=4;overflow=hidden;rotatable=0;points=[[0,0.5],[1,0.5]];portConstraint=eastwest;" vertex="1" parent="4bJPrbGNWd6y70NHf2oy-199">
          <mxGeometry y="164" width="160" height="26" as="geometry" />
        </mxCell>
        <mxCell id="4bJPrbGNWd6y70NHf2oy-208" value="+trackDeliveries()" style="text;align=left;verticalAlign=top;spacingLeft=4;spacingRight=4;overflow=hidden;rotatable=0;points=[[0,0.5],[1,0.5]];portConstraint=eastwest;" vertex="1" parent="4bJPrbGNWd6y70NHf2oy-199">
          <mxGeometry y="190" width="160" height="26" as="geometry" />
        </mxCell>
        <mxCell id="4bJPrbGNWd6y70NHf2oy-213" value="1" style="edgeLabel;html=1;align=center;verticalAlign=middle;resizable=0;points=[];" vertex="1" connectable="0" parent="WIyWlLk6GJQsqaUBKTNV-1">
          <mxGeometry x="820.6679630649792" y="1294.1629758961742" as="geometry" />
        </mxCell>
        <mxCell id="4bJPrbGNWd6y70NHf2oy-216" value="" style="endArrow=none;html=1;rounded=0;exitX=0.25;exitY=1;exitDx=0;exitDy=0;entryX=0.25;entryY=0;entryDx=0;entryDy=0;" edge="1" parent="WIyWlLk6GJQsqaUBKTNV-1" source="4bJPrbGNWd6y70NHf2oy-153" target="4bJPrbGNWd6y70NHf2oy-190">
          <mxGeometry width="50" height="50" relative="1" as="geometry">
            <mxPoint x="533" y="1110" as="sourcePoint" />
            <mxPoint x="583" y="1060" as="targetPoint" />
          </mxGeometry>
        </mxCell>
        <mxCell id="4bJPrbGNWd6y70NHf2oy-218" value="*" style="edgeLabel;html=1;align=center;verticalAlign=middle;resizable=0;points=[];" vertex="1" connectable="0" parent="4bJPrbGNWd6y70NHf2oy-216">
          <mxGeometry x="-0.6513" y="2" relative="1" as="geometry">
            <mxPoint as="offset" />
          </mxGeometry>
        </mxCell>
        <mxCell id="4bJPrbGNWd6y70NHf2oy-219" value="1" style="edgeLabel;html=1;align=center;verticalAlign=middle;resizable=0;points=[];" vertex="1" connectable="0" parent="4bJPrbGNWd6y70NHf2oy-216">
          <mxGeometry x="0.7077" relative="1" as="geometry">
            <mxPoint as="offset" />
          </mxGeometry>
        </mxCell>
        <mxCell id="4bJPrbGNWd6y70NHf2oy-220" value="" style="endArrow=classic;html=1;rounded=0;entryX=0.75;entryY=1;entryDx=0;entryDy=0;exitX=0.75;exitY=0;exitDx=0;exitDy=0;" edge="1" parent="WIyWlLk6GJQsqaUBKTNV-1" source="4bJPrbGNWd6y70NHf2oy-199" target="4bJPrbGNWd6y70NHf2oy-60">
          <mxGeometry width="50" height="50" relative="1" as="geometry">
            <mxPoint x="533" y="880" as="sourcePoint" />
            <mxPoint x="583" y="830" as="targetPoint" />
            <Array as="points">
              <mxPoint x="803" y="950" />
              <mxPoint x="853" y="950" />
            </Array>
          </mxGeometry>
        </mxCell>
        <mxCell id="4bJPrbGNWd6y70NHf2oy-221" value="" style="endArrow=none;html=1;rounded=0;entryX=0.25;entryY=1;entryDx=0;entryDy=0;exitX=0.75;exitY=1;exitDx=0;exitDy=0;" edge="1" parent="WIyWlLk6GJQsqaUBKTNV-1" source="4bJPrbGNWd6y70NHf2oy-190" target="4bJPrbGNWd6y70NHf2oy-199">
          <mxGeometry width="50" height="50" relative="1" as="geometry">
            <mxPoint x="533" y="1320" as="sourcePoint" />
            <mxPoint x="583" y="1270" as="targetPoint" />
            <Array as="points">
              <mxPoint x="173" y="1470" />
              <mxPoint x="723" y="1470" />
            </Array>
          </mxGeometry>
        </mxCell>
        <mxCell id="4bJPrbGNWd6y70NHf2oy-222" value="1" style="edgeLabel;html=1;align=center;verticalAlign=middle;resizable=0;points=[];" vertex="1" connectable="0" parent="4bJPrbGNWd6y70NHf2oy-221">
          <mxGeometry x="-0.9629" y="1" relative="1" as="geometry">
            <mxPoint as="offset" />
          </mxGeometry>
        </mxCell>
        <mxCell id="4bJPrbGNWd6y70NHf2oy-223" value="*" style="edgeLabel;html=1;align=center;verticalAlign=middle;resizable=0;points=[];" vertex="1" connectable="0" parent="4bJPrbGNWd6y70NHf2oy-221">
          <mxGeometry x="0.9642" y="-2" relative="1" as="geometry">
            <mxPoint as="offset" />
          </mxGeometry>
        </mxCell>
        <mxCell id="4bJPrbGNWd6y70NHf2oy-224" value="" style="endArrow=none;html=1;rounded=0;exitX=1;exitY=0.5;exitDx=0;exitDy=0;entryX=0;entryY=0.5;entryDx=0;entryDy=0;" edge="1" parent="WIyWlLk6GJQsqaUBKTNV-1" source="4bJPrbGNWd6y70NHf2oy-196" target="4bJPrbGNWd6y70NHf2oy-183">
          <mxGeometry width="50" height="50" relative="1" as="geometry">
            <mxPoint x="533" y="1320" as="sourcePoint" />
            <mxPoint x="583" y="1270" as="targetPoint" />
          </mxGeometry>
        </mxCell>
        <mxCell id="4bJPrbGNWd6y70NHf2oy-225" value="*" style="edgeLabel;html=1;align=center;verticalAlign=middle;resizable=0;points=[];" vertex="1" connectable="0" parent="4bJPrbGNWd6y70NHf2oy-224">
          <mxGeometry x="0.5205" y="-1" relative="1" as="geometry">
            <mxPoint x="1" as="offset" />
          </mxGeometry>
        </mxCell>
        <mxCell id="4bJPrbGNWd6y70NHf2oy-226" value="1" style="edgeLabel;html=1;align=center;verticalAlign=middle;resizable=0;points=[];" vertex="1" connectable="0" parent="4bJPrbGNWd6y70NHf2oy-224">
          <mxGeometry x="-0.4424" y="-1" relative="1" as="geometry">
            <mxPoint x="1" as="offset" />
          </mxGeometry>
        </mxCell>
      </root>
    </mxGraphModel>
  </diagram>
</mxfile>
